<svg width="40" height="40" viewBox="0 0 40 40" fill="none" xmlns="http://www.w3.org/2000/svg">
<path d="M36.25 21.3531C35.9844 24.4406 34.8426 27.3879 32.9588 29.8485C31.075 32.3091 28.5277 34.1804 25.6165 35.2424C22.7053 36.3044 19.5513 36.5129 16.5257 35.8433C13.5 35.1737 10.7286 33.6538 8.53735 31.4626C6.34612 29.2714 4.8263 26.4999 4.15669 23.4743C3.48708 20.4486 3.69554 17.2947 4.75754 14.3835C5.81954 11.4723 7.6909 8.92493 10.1515 7.04116C12.612 5.15739 15.5594 4.01555 18.6469 3.74997C18.811 3.73643 18.9762 3.75535 19.1331 3.80566C19.2899 3.85597 19.4353 3.93667 19.561 4.04317C19.6866 4.14967 19.79 4.27987 19.8654 4.42634C19.9407 4.57282 19.9864 4.7327 20 4.89685C20.0135 5.061 19.9946 5.22621 19.9443 5.38305C19.894 5.53989 19.8133 5.68529 19.7068 5.81094C19.6003 5.93659 19.4701 6.04003 19.3236 6.11536C19.1771 6.19069 19.0173 6.23643 18.8531 6.24997C16.24 6.4745 13.7453 7.4407 11.6627 9.03492C9.58001 10.6291 7.99602 12.785 7.09706 15.2489C6.1981 17.7128 6.02157 20.3822 6.58825 22.9431C7.15492 25.5039 8.44122 27.8496 10.2958 29.7042C12.1504 31.5587 14.4961 32.845 17.0569 33.4117C19.6177 33.9784 22.2871 33.8019 24.751 32.9029C27.2149 32.0039 29.3708 30.42 30.965 28.3373C32.5593 26.2547 33.5255 23.76 33.75 21.1468C33.7773 20.8153 33.9353 20.5082 34.189 20.2932C34.4428 20.0781 34.7716 19.9726 35.1031 20C35.4346 20.0273 35.7417 20.1852 35.9568 20.439C36.1719 20.6928 36.2773 21.0216 36.25 21.3531ZM18.75 11.25V20C18.75 20.3315 18.8817 20.6494 19.1161 20.8839C19.3505 21.1183 19.6685 21.25 20 21.25H28.75C29.0815 21.25 29.3995 21.1183 29.6339 20.8839C29.8683 20.6494 30 20.3315 30 20C30 19.6685 29.8683 19.3505 29.6339 19.1161C29.3995 18.8817 29.0815 18.75 28.75 18.75H21.25V11.25C21.25 10.9185 21.1183 10.6005 20.8839 10.3661C20.6495 10.1317 20.3315 9.99997 20 9.99997C19.6685 9.99997 19.3505 10.1317 19.1161 10.3661C18.8817 10.6005 18.75 10.9185 18.75 11.25ZM25 7.49997C25.3708 7.49997 25.7333 7.39001 26.0417 7.18398C26.35 6.97795 26.5903 6.68512 26.7323 6.34251C26.8742 5.99989 26.9113 5.62289 26.839 5.25918C26.7666 4.89547 26.588 4.56137 26.3258 4.29915C26.0636 4.03693 25.7295 3.85835 25.3658 3.786C25.0021 3.71365 24.6251 3.75079 24.2825 3.8927C23.9398 4.03461 23.647 4.27494 23.441 4.58328C23.235 4.89162 23.125 5.25413 23.125 5.62497C23.125 6.12226 23.3225 6.59917 23.6742 6.9508C24.0258 7.30243 24.5027 7.49997 25 7.49997ZM30.625 11.25C30.9958 11.25 31.3583 11.14 31.6667 10.934C31.975 10.728 32.2153 10.4351 32.3573 10.0925C32.4992 9.74989 32.5363 9.37289 32.464 9.00918C32.3916 8.64547 32.213 8.31137 31.9508 8.04915C31.6886 7.78693 31.3545 7.60835 30.9908 7.536C30.6271 7.46365 30.2501 7.50079 29.9075 7.6427C29.5648 7.78461 29.272 8.02494 29.066 8.33328C28.86 8.64162 28.75 9.00413 28.75 9.37497C28.75 9.87226 28.9475 10.3492 29.2992 10.7008C29.6508 11.0524 30.1277 11.25 30.625 11.25ZM34.375 16.875C34.7458 16.875 35.1083 16.765 35.4167 16.559C35.725 16.353 35.9653 16.0601 36.1073 15.7175C36.2492 15.3749 36.2863 14.9979 36.214 14.6342C36.1416 14.2705 35.963 13.9364 35.7008 13.6741C35.4386 13.4119 35.1045 13.2333 34.7408 13.161C34.3771 13.0887 34.0001 13.1258 33.6575 13.2677C33.3148 13.4096 33.022 13.6499 32.816 13.9583C32.61 14.2666 32.5 14.6291 32.5 15C32.5 15.4973 32.6975 15.9742 33.0492 16.3258C33.4008 16.6774 33.8777 16.875 34.375 16.875Z" fill="#222222"/>
</svg>
