<svg width="40" height="40" viewBox="0 0 40 40" fill="none" xmlns="http://www.w3.org/2000/svg">
<path d="M25 6.25C22.4464 6.25196 19.9437 6.96428 17.7718 8.30728C15.5998 9.65029 13.8443 11.571 12.7016 13.8547C11.3421 13.6564 9.95644 13.7404 8.63089 14.1014C7.30534 14.4623 6.06839 15.0926 4.99719 15.9528C3.92599 16.8129 3.04352 17.8846 2.40482 19.1009C1.76612 20.3173 1.3849 21.6522 1.28493 23.0223C1.18497 24.3925 1.3684 25.7686 1.82378 27.0647C2.27917 28.3609 2.99674 29.5493 3.93175 30.5559C4.86675 31.5624 5.99912 32.3655 7.25824 32.9151C8.51736 33.4646 9.8762 33.7488 11.25 33.75H25C28.6467 33.75 32.1441 32.3013 34.7227 29.7227C37.3014 27.1441 38.75 23.6467 38.75 20C38.75 16.3533 37.3014 12.8559 34.7227 10.2773C32.1441 7.69866 28.6467 6.25 25 6.25ZM25 31.25H11.25C9.2609 31.25 7.35325 30.4598 5.94672 29.0533C4.5402 27.6468 3.75002 25.7391 3.75002 23.75C3.75002 21.7609 4.5402 19.8532 5.94672 18.4467C7.35325 17.0402 9.2609 16.25 11.25 16.25C11.4219 16.25 11.5938 16.25 11.7641 16.2672C11.4222 17.482 11.2493 18.738 11.25 20C11.25 20.3315 11.3817 20.6495 11.6161 20.8839C11.8506 21.1183 12.1685 21.25 12.5 21.25C12.8315 21.25 13.1495 21.1183 13.3839 20.8839C13.6183 20.6495 13.75 20.3315 13.75 20C13.75 17.775 14.4098 15.5999 15.646 13.7498C16.8822 11.8998 18.6392 10.4578 20.6948 9.60636C22.7505 8.75487 25.0125 8.53208 27.1948 8.96617C29.3771 9.40025 31.3816 10.4717 32.955 12.045C34.5283 13.6184 35.5998 15.6229 36.0339 17.8052C36.4679 19.9875 36.2452 22.2495 35.3937 24.3052C34.5422 26.3609 33.1002 28.1179 31.2502 29.354C29.4001 30.5902 27.2251 31.25 25 31.25ZM30.8844 16.6156C31.0006 16.7317 31.0928 16.8696 31.1557 17.0213C31.2186 17.1731 31.251 17.3357 31.251 17.5C31.251 17.6643 31.2186 17.8269 31.1557 17.9787C31.0928 18.1304 31.0006 18.2683 30.8844 18.3844L23.3844 25.8844C23.2683 26.0006 23.1304 26.0928 22.9787 26.1557C22.827 26.2186 22.6643 26.251 22.5 26.251C22.3358 26.251 22.1731 26.2186 22.0213 26.1557C21.8696 26.0928 21.7317 26.0006 21.6156 25.8844L17.8656 22.1344C17.6311 21.8998 17.4993 21.5817 17.4993 21.25C17.4993 20.9183 17.6311 20.6002 17.8656 20.3656C18.1002 20.1311 18.4183 19.9993 18.75 19.9993C19.0817 19.9993 19.3998 20.1311 19.6344 20.3656L22.5 23.2328L29.1156 16.6156C29.2317 16.4994 29.3696 16.4072 29.5213 16.3443C29.6731 16.2814 29.8358 16.249 30 16.249C30.1643 16.249 30.327 16.2814 30.4787 16.3443C30.6304 16.4072 30.7683 16.4994 30.8844 16.6156Z" fill="#222222"/>
</svg>
