<svg width="96" height="28" viewBox="0 0 96 28" fill="none" xmlns="http://www.w3.org/2000/svg">
<path d="M40.692 25L34.14 4.84H37.178L42.764 22.046L48.42 4.84H51.458L44.906 25H40.692ZM51.6225 7.402V4.56H54.5485V7.402H51.6225ZM51.6225 25V9.88H54.5485V25H51.6225ZM63.6387 25.42C62.1267 25.42 60.8153 25.0793 59.7047 24.398C58.594 23.7167 57.7353 22.7787 57.1287 21.584C56.5313 20.38 56.2327 18.994 56.2327 17.426C56.2327 15.8487 56.5407 14.4627 57.1567 13.268C57.7727 12.064 58.636 11.1307 59.7467 10.468C60.8573 9.796 62.1547 9.46 63.6387 9.46C65.1507 9.46 66.462 9.80067 67.5727 10.482C68.6833 11.1633 69.542 12.1013 70.1487 13.296C70.7553 14.4907 71.0587 15.8673 71.0587 17.426C71.0587 19.0033 70.7507 20.394 70.1347 21.598C69.528 22.7927 68.6693 23.7307 67.5587 24.412C66.448 25.084 65.1413 25.42 63.6387 25.42ZM63.6387 22.662C65.0853 22.662 66.1633 22.1767 66.8727 21.206C67.5913 20.226 67.9507 18.966 67.9507 17.426C67.9507 15.8487 67.5867 14.5887 66.8587 13.646C66.14 12.694 65.0667 12.218 63.6387 12.218C62.6587 12.218 61.8513 12.442 61.2167 12.89C60.582 13.3287 60.1107 13.94 59.8027 14.724C59.4947 15.4987 59.3407 16.3993 59.3407 17.426C59.3407 19.0127 59.7047 20.282 60.4327 21.234C61.1607 22.186 62.2293 22.662 63.6387 22.662ZM72.4552 25V9.88H75.0592V13.548L74.6952 13.072C74.8818 12.5867 75.1245 12.1433 75.4232 11.742C75.7218 11.3313 76.0672 10.9953 76.4592 10.734C76.8418 10.454 77.2665 10.2393 77.7332 10.09C78.2092 9.93133 78.6945 9.838 79.1892 9.81C79.6838 9.77267 80.1598 9.796 80.6172 9.88V12.624C80.1225 12.4933 79.5718 12.456 78.9652 12.512C78.3678 12.568 77.8172 12.7593 77.3132 13.086C76.8372 13.394 76.4592 13.7673 76.1792 14.206C75.9085 14.6447 75.7125 15.1347 75.5912 15.676C75.4698 16.208 75.4092 16.7727 75.4092 17.37V25H72.4552ZM85.4358 25.42C84.3158 25.42 83.3778 25.2147 82.6218 24.804C81.8658 24.384 81.2918 23.8333 80.8998 23.152C80.5171 22.4613 80.3258 21.7053 80.3258 20.884C80.3258 20.1187 80.4611 19.4467 80.7318 18.868C81.0024 18.2893 81.4038 17.7993 81.9358 17.398C82.4678 16.9873 83.1211 16.656 83.8958 16.404C84.5678 16.208 85.3284 16.0353 86.1778 15.886C87.0271 15.7367 87.9184 15.5967 88.8518 15.466C89.7944 15.3353 90.7278 15.2047 91.6518 15.074L90.5878 15.662C90.6064 14.4767 90.3544 13.5993 89.8318 13.03C89.3184 12.4513 88.4318 12.162 87.1718 12.162C86.3784 12.162 85.6504 12.3487 84.9878 12.722C84.3251 13.086 83.8631 13.6927 83.6018 14.542L80.8718 13.702C81.2451 12.4047 81.9544 11.3733 82.9998 10.608C84.0544 9.84267 85.4544 9.46 87.1998 9.46C88.5531 9.46 89.7291 9.69333 90.7278 10.16C91.7358 10.6173 92.4731 11.3453 92.9398 12.344C93.1824 12.8387 93.3318 13.3613 93.3878 13.912C93.4438 14.4627 93.4718 15.0553 93.4718 15.69V25H90.8818V21.542L91.3858 21.99C90.7604 23.1473 89.9624 24.0107 88.9918 24.58C88.0304 25.14 86.8451 25.42 85.4358 25.42ZM85.9538 23.026C86.7844 23.026 87.4984 22.8813 88.0958 22.592C88.6931 22.2933 89.1738 21.9153 89.5378 21.458C89.9018 21.0007 90.1398 20.5247 90.2518 20.03C90.4104 19.582 90.4991 19.078 90.5178 18.518C90.5458 17.958 90.5598 17.51 90.5598 17.174L91.5118 17.524C90.5878 17.664 89.7478 17.79 88.9918 17.902C88.2358 18.014 87.5498 18.126 86.9338 18.238C86.3271 18.3407 85.7858 18.4667 85.3098 18.616C84.9084 18.756 84.5491 18.924 84.2318 19.12C83.9238 19.316 83.6764 19.554 83.4898 19.834C83.3124 20.114 83.2238 20.4547 83.2238 20.856C83.2238 21.248 83.3218 21.612 83.5178 21.948C83.7138 22.2747 84.0124 22.536 84.4138 22.732C84.8151 22.928 85.3284 23.026 85.9538 23.026Z" fill="white"/>
<path d="M23.0059 12.7119L17 28L14.8818 18.1172L18.7676 8.22559L23.0059 12.7119Z" fill="white"/>
<path d="M0 0H6L17 28H11L0 0Z" fill="white"/>
<path d="M0 0H6L17 28H11L0 0Z" fill="white"/>
<path d="M25.999 5.09082H26L23 12.7266L18 0H24L25.999 5.09082Z" fill="white"/>
</svg>
