<svg width="121" height="26" viewBox="0 0 121 26" fill="none" xmlns="http://www.w3.org/2000/svg">
<g clip-path="url(#clip0_7_729)">
<path fill-rule="evenodd" clip-rule="evenodd" d="M12.857 2.96855L14.5633 0L19.4007 2.80605L17.6951 5.77395C17.3955 6.2946 17.8439 6.9277 18.4314 6.81395L21.7004 6.1802L22.7583 11.6903L19.4894 12.3233C14.2016 13.3477 10.1646 7.65375 12.857 2.96855Z" fill="#222222"/>
<path fill-rule="evenodd" clip-rule="evenodd" d="M9.90129 23.0315L8.195 26L3.35694 23.1946L5.06324 20.2261C5.36282 19.7054 4.91441 19.0723 4.32624 19.1861L1.05794 19.8192L0 14.3098L3.26894 13.6767C8.55671 12.6523 12.5931 18.3463 9.90129 23.0315Z" fill="#A7A7A7"/>
<path fill-rule="evenodd" clip-rule="evenodd" d="M10.0488 2.96855L8.34316 0L3.5051 2.80605L5.21139 5.77395C5.51033 6.2946 5.06257 6.9277 4.47439 6.81395L1.20545 6.1802L0.148804 11.6903L3.4171 12.3233C8.70551 13.3477 12.7425 7.65375 10.0495 2.96855H10.0488Z" fill="#222222"/>
<path fill-rule="evenodd" clip-rule="evenodd" d="M12.7147 23.0315L14.4197 26L19.2578 23.1946L17.5515 20.2261C17.2525 19.7054 17.7003 19.0723 18.2885 19.1861L21.5568 19.8192L22.6147 14.3098L19.3458 13.6767C14.058 12.6523 10.0217 18.3463 12.7134 23.0315H12.7147Z" fill="#222222"/>
<path d="M105.544 19.5995V14.0745C105.544 13.3088 105.72 12.6217 106.07 12.014C106.433 11.3939 106.948 10.9077 107.614 10.5547C108.279 10.2024 109.072 10.0263 109.991 10.0263C110.421 10.0221 110.848 10.0772 111.262 10.1901C111.65 10.2876 112.001 10.4273 112.315 10.6093C112.642 10.7796 112.92 10.9863 113.15 11.2294H113.187C113.433 10.9828 113.714 10.7739 114.021 10.6093C114.359 10.4229 114.719 10.2819 115.093 10.1901C115.513 10.078 115.947 10.0229 116.382 10.0263C117.301 10.0263 118.094 10.2018 118.76 10.5547C119.425 10.9077 119.939 11.3932 120.302 12.014C120.666 12.6217 120.847 13.3081 120.847 14.0745V19.5995H118.015V14.1655C118.015 13.8619 117.937 13.5883 117.779 13.3452C117.635 13.0909 117.429 12.8775 117.18 12.7251C116.918 12.5647 116.616 12.4825 116.309 12.4878C115.982 12.4878 115.686 12.5671 115.42 12.7251C115.171 12.8773 114.965 13.0907 114.82 13.3452C114.674 13.5931 114.598 13.877 114.602 14.1655V19.5995H111.789V14.1655C111.789 13.8619 111.71 13.5883 111.553 13.3452C111.405 13.0872 111.192 12.8732 110.936 12.7251C110.673 12.5647 110.371 12.4825 110.064 12.4878C109.737 12.4878 109.441 12.5671 109.175 12.7251C108.926 12.8773 108.72 13.0907 108.576 13.3452C108.429 13.5932 108.354 13.8771 108.358 14.1655V19.5995H105.544ZM99.3901 19.8185C98.4344 19.8185 97.6048 19.6365 96.9034 19.2712C96.2137 18.8942 95.6811 18.3898 95.3058 17.758C94.9305 17.1139 94.7429 16.4021 94.7429 15.6241V10.2447H97.557V15.5513C97.557 15.8795 97.6353 16.1837 97.7925 16.4632C97.9497 16.7304 98.162 16.9494 98.4279 17.1197C98.7061 17.2777 99.0213 17.357 99.372 17.357C99.711 17.357 100.013 17.2777 100.28 17.1197C100.558 16.9494 100.776 16.7304 100.933 16.4632C101.091 16.1837 101.169 15.8795 101.169 15.5513V10.2447H103.983V15.6241C103.983 16.4021 103.801 17.1139 103.438 17.758C103.075 18.3898 102.549 18.8949 101.859 19.2712C101.181 19.6359 100.358 19.8185 99.3901 19.8185ZM85.6796 19.5995V17.357H90.1637C90.2847 17.357 90.3934 17.3323 90.4904 17.2835C90.5868 17.2231 90.6658 17.1438 90.726 17.0469C90.7852 16.9511 90.8167 16.8406 90.8167 16.7278C90.8167 16.615 90.7852 16.5044 90.726 16.4086C90.6694 16.3149 90.5878 16.239 90.4904 16.1896C90.3924 16.1285 90.279 16.0969 90.1637 16.0986H88.5298C87.9242 16.0986 87.3736 16.0011 86.8779 15.8067C86.407 15.6108 86.0032 15.2812 85.7158 14.8584C85.4376 14.4209 85.2984 13.8554 85.2984 13.1625C85.2984 12.6276 85.4253 12.1414 85.6796 11.7039C85.9441 11.2678 86.312 10.9043 86.7504 10.6457C87.208 10.379 87.7284 10.2405 88.2574 10.2447H92.7409V12.506H88.6929C88.5321 12.5028 88.3763 12.5616 88.2574 12.6705C88.2044 12.7226 88.1625 12.785 88.1343 12.854C88.1062 12.923 88.0924 12.997 88.0937 13.0715C88.0937 13.2418 88.1487 13.3874 88.2574 13.509C88.3763 13.6178 88.5321 13.6766 88.6929 13.6734H90.2905C90.968 13.6734 91.549 13.7768 92.033 13.9828C92.5293 14.1778 92.9104 14.4937 93.177 14.9318C93.4553 15.3693 93.5944 15.9341 93.5944 16.627C93.5944 17.1743 93.4553 17.6729 93.177 18.122C92.913 18.5697 92.5374 18.9407 92.0874 19.1984C91.6396 19.4662 91.1317 19.5995 90.5629 19.5995H85.6796ZM79.5493 10.0263C80.3361 10.0263 81.0317 10.1537 81.6367 10.4091C82.231 10.6367 82.7652 10.9985 83.1981 11.4667C83.6393 11.9253 83.9795 12.4721 84.1965 13.0715C84.4262 13.6793 84.5414 14.354 84.5414 15.0956C84.5414 16.0193 84.3479 16.8402 83.9603 17.5572C83.6023 18.2443 83.0622 18.8186 82.3996 19.2166C81.7338 19.6177 80.9593 19.8185 80.076 19.8185C79.7007 19.8185 79.3436 19.7698 79.0045 19.6729C78.6834 19.5781 78.3777 19.4366 78.0973 19.253C77.8329 19.0728 77.605 18.8439 77.4257 18.5783H77.3707V23.5573H74.5573V15.095C74.5573 14.0615 74.763 13.1677 75.1746 12.4144C75.5735 11.6728 76.1791 11.0643 76.9171 10.6633C77.6677 10.2382 78.5451 10.0256 79.5493 10.0256V10.0263ZM79.5493 12.4696C79.1138 12.4696 78.7327 12.5788 78.406 12.7979C78.0908 13.0046 77.8489 13.2964 77.6793 13.6734C77.5104 14.0374 77.4257 14.4515 77.4257 14.913C77.4257 15.3751 77.5104 15.7885 77.6793 16.1532C77.8489 16.5178 78.0908 16.8097 78.406 17.0287C78.7327 17.2354 79.1138 17.3388 79.5493 17.3388C79.9848 17.3388 80.3601 17.2348 80.6746 17.0287C80.991 16.8081 81.2421 16.5056 81.4012 16.1532C81.5824 15.7885 81.673 15.3751 81.673 14.913C81.673 14.4515 81.5824 14.0381 81.4012 13.6734C81.2317 13.2964 80.9897 13.0039 80.6746 12.7979C80.3601 12.5788 79.9848 12.4696 79.5493 12.4696ZM70.2815 19.5995V10.2447H73.1137V19.5995H70.2815ZM71.6973 9.18711C71.2495 9.18711 70.8626 9.02331 70.5358 8.69506C70.209 8.36681 70.0453 7.97746 70.0453 7.52766C70.0453 7.07786 70.209 6.68916 70.5358 6.36091C70.8626 6.02031 71.2495 5.85001 71.6973 5.85001C72.145 5.85001 72.5326 6.02031 72.8594 6.36091C73.1861 6.68916 73.3492 7.07786 73.3492 7.52766C73.3492 7.97746 73.1861 8.36616 72.8594 8.69506C72.5326 9.02331 72.145 9.18711 71.6973 9.18711ZM64.1267 19.8185C63.171 19.8185 62.3117 19.606 61.5488 19.1802C60.8004 18.7681 60.1742 18.1641 59.7338 17.4298C59.2983 16.6881 59.0803 15.8555 59.0803 14.9312C59.0803 13.9952 59.2983 13.1625 59.7338 12.4332C60.1742 11.6988 60.8004 11.0949 61.5488 10.6828C62.3117 10.2447 63.171 10.0263 64.1267 10.0263C65.083 10.0263 65.9358 10.2447 66.6864 10.6828C67.4322 11.092 68.0532 11.697 68.4833 12.4332C68.9311 13.1625 69.155 13.9952 69.155 14.9312C69.155 15.8555 68.9311 16.6881 68.4833 17.4298C68.0532 18.166 67.4322 18.771 66.6864 19.1802C65.9242 19.606 65.0707 19.8185 64.1267 19.8185ZM64.1267 17.357C64.5744 17.357 64.962 17.2471 65.2888 17.0287C65.6156 16.8099 65.8787 16.5077 66.051 16.1532C66.2328 15.7885 66.3234 15.3751 66.3234 14.913C66.3234 14.4632 66.2328 14.0563 66.051 13.691C65.8786 13.3366 65.6156 13.0347 65.2888 12.8161C64.962 12.597 64.5744 12.4878 64.1267 12.4878C63.6789 12.4878 63.2855 12.597 62.9471 12.8161C62.6201 13.0349 62.3568 13.337 62.1842 13.6916C61.9993 14.0718 61.9062 14.4905 61.9124 14.9136C61.9124 15.3751 62.003 15.7885 62.1842 16.1532C62.3569 16.5077 62.6201 16.8098 62.9471 17.0287C63.2855 17.2471 63.6789 17.357 64.1267 17.357ZM49.936 23.3019V20.8761H54.5826C54.7644 20.8761 54.9158 20.8156 55.0368 20.6941C55.0958 20.6417 55.1426 20.5769 55.1739 20.5044C55.2052 20.4318 55.2202 20.3532 55.218 20.2742V18.2137H55.1636C54.9338 18.4822 54.6716 18.721 54.3833 18.9248C54.1167 19.1198 53.8138 19.2654 53.4754 19.3629C53.1153 19.4645 52.7424 19.5136 52.3683 19.5085C51.5453 19.5085 50.807 19.3135 50.1534 18.9248C49.5122 18.5237 49.0036 17.9706 48.6283 17.2653C48.266 16.5607 48.0841 15.758 48.0841 14.8584C48.0841 13.9711 48.2718 13.1625 48.6471 12.4332C49.034 11.7039 49.597 11.1202 50.3353 10.6828C51.0729 10.2447 51.9749 10.0263 53.04 10.0263C54.0565 10.0263 54.9339 10.2388 55.6722 10.6646C56.4136 11.0688 57.0197 11.6838 57.4147 12.4326C57.8263 13.1866 58.032 14.0745 58.032 15.0956V20.566C58.032 21.4045 57.7842 22.0675 57.2879 22.5537C56.8039 23.0523 56.1323 23.3012 55.273 23.3012L49.936 23.3019ZM53.0581 17.1379C53.4936 17.1379 53.8688 17.0404 54.184 16.8461C54.4949 16.6433 54.7455 16.3598 54.9093 16.0258C55.0814 15.6741 55.1685 15.2866 55.1636 14.8948C55.1636 14.4573 55.0795 14.0563 54.91 13.6916C54.7404 13.327 54.4984 13.041 54.1833 12.8343C53.8688 12.6152 53.4936 12.506 53.0574 12.506C52.6343 12.506 52.259 12.6094 51.9322 12.8161C51.6177 13.0228 51.3757 13.3023 51.2062 13.6546C51.0373 14.0075 50.9526 14.4021 50.9526 14.8402C50.9526 15.2659 51.0367 15.6546 51.2062 16.0076C51.3757 16.3475 51.6177 16.6212 51.9328 16.8279C52.259 17.0346 52.6343 17.1379 53.0581 17.1379ZM42.3648 19.8185C41.4091 19.8185 40.5498 19.606 39.7876 19.1802C39.0389 18.7683 38.4124 18.1642 37.9719 17.4298C37.5364 16.6881 37.3184 15.8555 37.3184 14.9312C37.3184 13.9952 37.5364 13.1625 37.9719 12.4332C38.4124 11.6987 39.0389 11.0947 39.7876 10.6828C40.5498 10.2447 41.4091 10.0263 42.3648 10.0263C43.3211 10.0263 44.174 10.2447 44.9246 10.6828C45.6702 11.092 46.2913 11.6971 46.7214 12.4332C47.1692 13.1625 47.3931 13.9952 47.3931 14.9312C47.3931 15.8555 47.1692 16.6881 46.7214 17.4298C46.2913 18.1659 45.6702 18.7709 44.9246 19.1802C44.1623 19.606 43.3088 19.8185 42.3648 19.8185ZM42.3648 17.357C42.8126 17.357 43.1995 17.2471 43.5269 17.0287C43.8536 16.8097 44.1167 16.5076 44.2891 16.1532C44.4703 15.7885 44.5609 15.3751 44.5609 14.913C44.5609 14.4632 44.4703 14.0563 44.2891 13.691C44.1166 13.3367 43.8536 13.0348 43.5269 12.8161C43.2001 12.597 42.8126 12.4878 42.3648 12.4878C41.917 12.4878 41.5236 12.597 41.1852 12.8161C40.8582 13.0349 40.5949 13.337 40.4223 13.6916C40.2375 14.0718 40.1444 14.4905 40.1506 14.9136C40.1506 15.3751 40.2411 15.7885 40.4223 16.1532C40.595 16.5077 40.8582 16.8098 41.1852 17.0287C41.5236 17.2471 41.917 17.357 42.3648 17.357ZM33.3538 19.5995C32.567 19.5995 31.8773 19.424 31.2846 19.071C30.7081 18.7352 30.2317 18.2504 29.905 17.667C29.5783 17.0833 29.4146 16.4385 29.4146 15.7339V6.83476H32.4641V15.9523C32.4641 16.2448 32.5677 16.4996 32.7728 16.7187C32.9785 16.9371 33.2322 17.0469 33.535 17.0469H36.8933V19.5995H33.3538Z" fill="#222222"/>
</g>
<defs>
<clipPath id="clip0_7_729">
<rect width="121" height="26" fill="white"/>
</clipPath>
</defs>
</svg>
