<svg width="129" height="22" viewBox="0 0 129 22" fill="none" xmlns="http://www.w3.org/2000/svg">
<g clip-path="url(#clip0_7_735)">
<path d="M28.3447 1.90872V17.0046H37.5749V14.269H31.3888V1.90872H28.3447Z" fill="#222222"/>
<path d="M74.8306 5.94104V17.0046H77.7762V5.94104H74.8306Z" fill="#222222"/>
<path d="M74.8306 1.90872V4.94815H77.7762V1.90872H74.8306Z" fill="#222222"/>
<path fill-rule="evenodd" clip-rule="evenodd" d="M79.343 21.0571V5.94103H82.0925V7.08877C82.4102 6.70306 82.8026 6.39478 83.2706 6.16395C83.8857 5.85325 84.5862 5.69788 85.3719 5.69788C86.3932 5.69788 87.316 5.95456 88.1411 6.46788C88.9658 6.98119 89.6204 7.67689 90.1049 8.55496C90.5895 9.41951 90.8315 10.3921 90.8315 11.4728C90.8315 12.54 90.5895 13.5126 90.1049 14.3906C89.6337 15.2687 88.9855 15.9644 88.1609 16.4777C87.3357 16.991 86.3996 17.2477 85.3522 17.2477C84.6192 17.2477 83.9385 17.1126 83.31 16.8425C82.923 16.6641 82.5824 16.4349 82.2887 16.1549V21.0571H79.343ZM84.9988 14.5122C85.5489 14.5122 86.0329 14.3839 86.4519 14.1272C86.8709 13.8705 87.1982 13.5126 87.4338 13.0533C87.6699 12.594 87.7877 12.0672 87.7877 11.4728C87.7877 10.8784 87.6699 10.3584 87.4338 9.91253C87.1982 9.45328 86.8709 9.09528 86.4519 8.8386C86.0329 8.56844 85.5489 8.43336 84.9988 8.43336C84.4753 8.43336 84.0035 8.56167 83.5851 8.81836C83.1789 9.07504 82.858 9.43298 82.6224 9.89229C82.4001 10.3516 82.2887 10.8784 82.2887 11.4728C82.2887 12.0672 82.4001 12.594 82.6224 13.0533C82.858 13.5126 83.1789 13.8705 83.5851 14.1272C84.0035 14.3839 84.4753 14.5122 84.9988 14.5122Z" fill="#222222"/>
<path d="M93.0867 16.3966C93.9641 16.964 94.9919 17.2477 96.1699 17.2477C97.0079 17.2477 97.7344 17.1059 98.3501 16.8222C98.9653 16.525 99.4434 16.1197 99.7835 15.6064C100.137 15.0931 100.314 14.4919 100.314 13.803C100.314 13.006 100.078 12.3374 99.6071 11.797C99.1353 11.2431 98.4546 10.8311 97.5644 10.561L95.8559 10.0341C95.5942 9.95306 95.3714 9.86528 95.188 9.77074C95.018 9.67614 94.8938 9.56806 94.8149 9.44651C94.7365 9.32491 94.6971 9.18983 94.6971 9.04127C94.6971 8.75758 94.8021 8.53467 95.0116 8.37258C95.2339 8.2105 95.535 8.12943 95.9146 8.12943C96.4386 8.12943 96.9034 8.27127 97.3091 8.55496C97.728 8.82512 98.0159 9.18983 98.1732 9.64913L100.353 8.59544C100.026 7.67689 99.4626 6.96766 98.6641 6.46788C97.8789 5.95456 96.962 5.69788 95.9146 5.69788C95.1161 5.69788 94.4092 5.84649 93.7941 6.14365C93.1784 6.42734 92.7008 6.82582 92.3602 7.33919C92.0201 7.8525 91.8495 8.45365 91.8495 9.14258C91.8495 9.92606 92.0851 10.6082 92.5569 11.1891C93.0281 11.7565 93.7024 12.1685 94.5793 12.4251L96.4055 12.952C96.6417 13.0195 96.8378 13.1006 96.9951 13.1951C97.1518 13.2897 97.2696 13.3978 97.3485 13.5193C97.4269 13.6274 97.4663 13.7625 97.4663 13.9246C97.4663 14.2353 97.3549 14.4785 97.1326 14.6541C96.9098 14.8297 96.5889 14.9175 96.1699 14.9175C95.5942 14.9175 95.0702 14.7486 94.599 14.4109C94.1278 14.0732 93.7546 13.6072 93.4796 13.0128L91.3191 14.0665C91.6336 15.0391 92.2226 15.8158 93.0867 16.3966Z" fill="#222222"/>
<path d="M112.653 5.94103H115.402V7.27753C115.603 6.87317 115.885 6.54922 116.247 6.30574C116.849 5.9005 117.569 5.69788 118.407 5.69788C119.297 5.69788 120.076 5.93427 120.744 6.4071C121.141 6.67501 121.451 6.99808 121.675 7.37631C121.958 6.9483 122.296 6.60499 122.688 6.34627C123.343 5.91403 124.109 5.69788 124.986 5.69788C125.759 5.69788 126.439 5.87349 127.028 6.22472C127.631 6.57595 128.102 7.06897 128.443 7.70389C128.783 8.32528 128.953 9.05475 128.953 9.89229V17.0046H126.007V10.5407C126.007 10.1084 125.929 9.73697 125.771 9.42622C125.627 9.11552 125.418 8.87237 125.143 8.69681C124.868 8.52119 124.534 8.43336 124.141 8.43336C123.762 8.43336 123.428 8.52119 123.14 8.69681C122.865 8.87237 122.649 9.11552 122.492 9.42622C122.348 9.73697 122.276 10.1084 122.276 10.5407V17.0046H119.33V10.5407C119.33 10.1084 119.252 9.73697 119.094 9.42622C118.95 9.11552 118.741 8.87237 118.466 8.69681C118.191 8.52119 117.857 8.43336 117.464 8.43336C117.085 8.43336 116.751 8.52119 116.463 8.69681C116.188 8.87237 115.972 9.11552 115.814 9.42622C115.67 9.73697 115.599 10.1084 115.599 10.5407V17.0046H112.653V5.94103Z" fill="#222222"/>
<path d="M105.334 17.2477C104.47 17.2477 103.731 17.0586 103.115 16.6803C102.513 16.2886 102.055 15.7483 101.741 15.0593C101.427 14.3704 101.269 13.5666 101.269 12.648V5.94104H104.215V12.4049C104.215 12.8236 104.294 13.1952 104.451 13.5193C104.621 13.83 104.857 14.0732 105.158 14.2488C105.459 14.4244 105.799 14.5122 106.179 14.5122C106.572 14.5122 106.912 14.4244 107.2 14.2488C107.501 14.0732 107.73 13.83 107.888 13.5193C108.058 13.1952 108.143 12.8236 108.143 12.4049V5.94104H111.089V17.0046H108.339V15.6582C108.089 16.144 107.736 16.5185 107.279 16.7817C106.729 17.0923 106.081 17.2477 105.334 17.2477Z" fill="#222222"/>
<path fill-rule="evenodd" clip-rule="evenodd" d="M67.9499 17.2477C66.8891 17.2477 65.9206 16.9978 65.0431 16.498C64.1791 15.9982 63.4856 15.316 62.9616 14.4515C62.4509 13.5734 62.1956 12.5805 62.1956 11.4728C62.1956 10.3516 62.4509 9.35868 62.9616 8.49413C63.4856 7.62959 64.1791 6.94742 65.0431 6.44758C65.9206 5.9478 66.8891 5.69788 67.9499 5.69788C69.0102 5.69788 69.9729 5.9478 70.837 6.44758C71.701 6.94742 72.3882 7.62959 72.8988 8.49413C73.4223 9.35868 73.6845 10.3516 73.6845 11.4728C73.6845 12.5805 73.4223 13.5734 72.8988 14.4515C72.3882 15.316 71.701 15.9982 70.837 16.498C69.9729 16.9978 69.0102 17.2477 67.9499 17.2477ZM67.9499 14.5122C68.4867 14.5122 68.9515 14.3839 69.3444 14.1272C69.7501 13.8705 70.064 13.5126 70.2868 13.0533C70.5225 12.594 70.6403 12.0672 70.6403 11.4728C70.6403 10.8784 70.5225 10.3584 70.2868 9.91253C70.064 9.45328 69.7501 9.09528 69.3444 8.8386C68.9515 8.56844 68.4867 8.43336 67.9499 8.43336C67.4131 8.43336 66.9419 8.56844 66.5357 8.8386C66.1301 9.09528 65.8092 9.45328 65.5735 9.91253C65.3507 10.3584 65.2398 10.8784 65.2398 11.4728C65.2398 12.0672 65.3507 12.594 65.5735 13.0533C65.8092 13.5126 66.1301 13.8705 66.5357 14.1272C66.9419 14.3839 67.4131 14.5122 67.9499 14.5122Z" fill="#222222"/>
<path fill-rule="evenodd" clip-rule="evenodd" d="M53.4477 21.0369C54.1545 21.3205 54.9205 21.4624 55.7457 21.4624C56.7798 21.4624 57.6898 21.2463 58.4755 20.814C59.274 20.3817 59.9025 19.7806 60.3604 19.0106C60.8188 18.2541 61.048 17.3896 61.048 16.4169V5.94103H58.2985V7.10307C57.9749 6.71142 57.6082 6.40512 57.1988 6.18419C56.6226 5.85996 55.9483 5.69788 55.1759 5.69788C54.194 5.69788 53.3171 5.9275 52.5444 6.38681C51.772 6.84611 51.1632 7.48103 50.718 8.29151C50.2728 9.08852 50.0503 10.0071 50.0503 11.0473C50.0503 12.0874 50.2728 13.0195 50.718 13.8435C51.1632 14.6541 51.7785 15.2957 52.564 15.7685C53.3496 16.2278 54.2398 16.4575 55.235 16.4575C56.0074 16.4575 56.6817 16.3089 57.2574 16.0117C57.5698 15.8432 57.8513 15.6292 58.1023 15.3695V16.4169C58.1023 16.8897 58.0037 17.3017 57.8076 17.653C57.6242 18.0042 57.3561 18.2676 57.0021 18.4432C56.6487 18.6323 56.2297 18.7269 55.7457 18.7269C55.13 18.7269 54.6002 18.5783 54.1545 18.2811C53.7094 17.9839 53.4152 17.5786 53.271 17.0653L50.5412 18.0582C50.7638 18.7472 51.1239 19.3415 51.6214 19.8413C52.132 20.3547 52.7408 20.7532 53.4477 21.0369ZM56.9435 13.3775C56.5767 13.5936 56.145 13.7017 55.6471 13.7017C55.1497 13.7017 54.7046 13.5936 54.3118 13.3775C53.9322 13.1478 53.6311 12.8372 53.4082 12.4454C53.199 12.0537 53.0943 11.6011 53.0943 11.0878C53.0943 10.561 53.199 10.1017 53.4082 9.70991C53.6311 9.30467 53.9322 8.99397 54.3118 8.77782C54.7046 8.5482 55.1497 8.43336 55.6471 8.43336C56.1316 8.43336 56.557 8.5482 56.9238 8.77782C57.2905 8.99397 57.5783 9.30467 57.7878 9.70991C57.9973 10.1017 58.1023 10.561 58.1023 11.0878C58.1023 11.6146 57.9973 12.0739 57.7878 12.4657C57.5917 12.8574 57.3102 13.1614 56.9435 13.3775Z" fill="#222222"/>
<path fill-rule="evenodd" clip-rule="evenodd" d="M43.6016 17.2477C42.541 17.2477 41.5722 16.9978 40.695 16.498C39.8309 15.9982 39.137 15.316 38.6133 14.4515C38.1027 13.5734 37.8474 12.5805 37.8474 11.4728C37.8474 10.3516 38.1027 9.35868 38.6133 8.49413C39.137 7.62959 39.8309 6.94742 40.695 6.44758C41.5722 5.9478 42.541 5.69788 43.6016 5.69788C44.662 5.69788 45.6243 5.9478 46.4884 6.44758C47.3525 6.94742 48.0399 7.62959 48.5505 8.49413C49.0742 9.35868 49.336 10.3516 49.336 11.4728C49.336 12.5805 49.0742 13.5734 48.5505 14.4515C48.0399 15.316 47.3525 15.9982 46.4884 16.498C45.6243 16.9978 44.662 17.2477 43.6016 17.2477ZM43.6016 14.5122C44.1383 14.5122 44.6031 14.3839 44.9959 14.1272C45.4017 13.8705 45.716 13.5126 45.9385 13.0533C46.1742 12.594 46.2921 12.0672 46.2921 11.4728C46.2921 10.8784 46.1742 10.3584 45.9385 9.91253C45.716 9.45328 45.4017 9.09528 44.9959 8.8386C44.6031 8.56844 44.1383 8.43336 43.6016 8.43336C43.0648 8.43336 42.5934 8.56844 42.1876 8.8386C41.7817 9.09528 41.4609 9.45328 41.2252 9.91253C41.0027 10.3584 40.8914 10.8784 40.8914 11.4728C40.8914 12.0672 41.0027 12.594 41.2252 13.0533C41.4609 13.5126 41.7817 13.8705 42.1876 14.1272C42.5934 14.3839 43.0648 14.5122 43.6016 14.5122Z" fill="#222222"/>
<path d="M19.0494 6.87104C17.8571 4.7525 14.8762 4.7525 13.6838 6.87104L11.9128 10.0177H15.4618C17.5683 10.0177 19.1589 11.5448 19.5606 13.4027L19.9963 12.6285C20.7059 11.3677 20.7059 9.81426 19.9963 8.55338L19.0494 6.87104Z" fill="#222222"/>
<path d="M12.8984 19.6249C14.2492 18.3366 14.7322 16.1733 13.6847 14.3121L11.8989 11.1393L15.4619 11.1393C17.8466 11.1393 19.337 13.7874 18.1447 15.906L16.981 17.9736C16.406 18.9952 15.3434 19.6246 14.1935 19.6248L12.8984 19.6249Z" fill="#A7A7A7"/>
<path d="M4.2832 16.8224C6.05116 17.3912 8.13228 16.7409 9.18427 14.8717L10.9606 11.7155L12.7376 14.8729C13.9302 16.9918 12.4391 19.6403 10.0541 19.6396L7.72625 19.639C6.57639 19.6387 5.514 19.0093 4.9391 17.9877L4.2832 16.8224Z" fill="#A7A7A7"/>
<path d="M2.36075 7.7793L1.92504 8.55348C1.21542 9.8143 1.21542 11.3677 1.92504 12.6285L2.8719 14.3109C4.06425 16.4295 7.0451 16.4295 8.23745 14.3109L10.0139 11.1546H6.45735C4.35461 11.1546 2.76578 9.6328 2.36075 7.7793Z" fill="#222222"/>
<path d="M3.74829 5.31399C3.6645 5.46861 3.59482 5.62589 3.53857 5.78462C3.59498 5.62545 3.66489 5.46777 3.74899 5.31274L3.74829 5.31399Z" fill="#222222"/>
<path d="M9.02351 1.54559C7.67183 2.83379 7.18835 4.99776 8.23618 6.85948L10.0224 10.0332H6.45715C4.07247 10.0332 2.58204 7.38506 3.77439 5.26647L4.93902 3.19717C5.51391 2.17566 6.57629 1.54626 7.72615 1.54595L9.02351 1.54559Z" fill="#222222"/>
<path d="M10.9632 9.46177L9.18309 6.29877C7.99064 4.18006 9.48139 1.53171 11.8663 1.53204L14.1934 1.53236C15.3434 1.53252 16.406 2.16194 16.981 3.18358L17.6439 4.36161C15.8747 3.78949 13.7901 4.43907 12.7369 6.31038L10.9632 9.46177Z" fill="#222222"/>
<path d="M7.72615 1.54582L9.02335 1.54559C7.67178 2.8338 7.1883 4.99771 8.23608 6.85943L10.0137 10.0177H10.0121V10.0302H8.81903L7.33494 7.39326C6.21957 5.41147 6.49826 3.159 7.63895 1.54706C7.66794 1.54624 7.697 1.54584 7.72615 1.54582Z" fill="#222222"/>
<path d="M2.36073 7.7793C2.56325 8.70605 3.06173 9.54991 3.7724 10.1621C4.44694 10.7431 5.31264 11.1154 6.29793 11.1517C6.35076 11.1537 6.4039 11.1547 6.45737 11.1547H10.0051L9.40433 12.2222H6.45737C4.23752 12.2222 2.48164 10.8618 1.68555 9.05552C1.75354 8.88408 1.83339 8.71628 1.92508 8.55337L2.36073 7.7793Z" fill="#222222"/>
<path d="M4.2832 16.8224C5.97776 17.3675 7.96004 16.7927 9.04807 15.0982L9.04839 15.0977C9.0954 15.0244 9.14077 14.9491 9.18432 14.8716L10.9606 11.7155C11.1219 12.0022 11.2831 12.289 11.4442 12.5757C11.4832 12.6451 11.5222 12.7144 11.5611 12.7837L10.0855 15.4054C8.96646 17.3938 6.91578 18.2717 4.97878 18.0563C4.9653 18.0337 4.95207 18.0108 4.93909 17.9877L4.2832 16.8224Z" fill="#222222"/>
<path d="M14.2826 19.6234C14.253 19.6243 14.2232 19.6248 14.1934 19.6248L12.8983 19.6249C14.2491 18.3366 14.7321 16.1733 13.6846 14.312L11.8989 11.1393L13.1005 11.1393L14.5859 13.7784C15.701 15.7597 15.4226 18.0116 14.2826 19.6234Z" fill="#222222"/>
<path d="M20.2368 12.124C20.1686 12.2963 20.0884 12.4649 19.9962 12.6286L19.5605 13.4028C19.1589 11.5449 17.5682 10.0178 15.4618 10.0178H11.9128L12.5137 8.95032H15.4618C17.6846 8.95032 19.4421 10.3142 20.2368 12.124Z" fill="#222222"/>
<path d="M16.9479 3.12629C16.959 3.14522 16.97 3.16429 16.9808 3.1835L17.6438 4.36153C15.8745 3.78941 13.79 4.43899 12.7368 6.3103L10.9631 9.46175L10.3623 8.39425L11.8356 5.77658C12.9557 3.78629 15.0092 2.90866 16.9479 3.12629Z" fill="#222222"/>
</g>
<defs>
<clipPath id="clip0_7_735">
<rect width="129" height="22" fill="white"/>
</clipPath>
</defs>
</svg>
