<svg width="130" height="21" viewBox="0 0 130 21" fill="none" xmlns="http://www.w3.org/2000/svg">
<g clip-path="url(#clip0_7_760)">
<path d="M18.1392 0.80793C18.5897 0.326692 19.2015 0.0563354 19.8385 0.0563354C22.7047 0.0563354 25.4057 0.0563369 28.0656 0.0563424C33.4155 0.0563539 36.0945 6.96645 32.3116 11.0078L24.0714 19.8109C23.6931 20.215 23.0463 19.9288 23.0463 19.3572V11.6038L23.9986 10.5864C24.7551 9.7782 24.2193 8.39615 23.1493 8.39615H11.0363L18.1392 0.80793Z" fill="#222222"/>
<path d="M15.9432 19.1921C15.4928 19.6734 14.881 19.9437 14.244 19.9437C11.3778 19.9437 8.67679 19.9437 6.01686 19.9437C0.666957 19.9437 -2.01201 13.0336 1.77092 8.9922L10.0111 0.189185C10.3893 -0.214954 11.0362 0.0712736 11.0362 0.64281L11.0362 8.39615L10.0839 9.41355C9.32733 10.2219 9.86315 11.6039 10.9331 11.6039L23.0463 11.6038L15.9432 19.1921Z" fill="#222222"/>
<path d="M81.8712 6.72V16.7174H84.7302V6.72H81.8712Z" fill="#222222"/>
<path d="M82.0705 5.05685C82.4084 5.4037 82.8212 5.57715 83.3101 5.57715C83.7984 5.57715 84.2089 5.4037 84.5405 5.05685C84.8784 4.70996 85.0473 4.28875 85.0473 3.79322C85.0473 3.2853 84.8784 2.86099 84.5405 2.52031C84.2089 2.17344 83.7984 2 83.3101 2C82.8212 2 82.4084 2.17344 82.0705 2.52031C81.7326 2.86099 81.5636 3.2853 81.5636 3.79322C81.5636 4.28875 81.7326 4.70996 82.0705 5.05685Z" fill="#222222"/>
<path fill-rule="evenodd" clip-rule="evenodd" d="M86.3434 20.6198V6.72001H89.0578V7.71416H89.0933C89.2642 7.54116 89.4483 7.38321 89.646 7.24031C90.2853 6.78191 91.021 6.55276 91.8535 6.55276C92.5834 6.55276 93.2801 6.74786 93.9438 7.13811C94.6132 7.52831 95.1561 8.10752 95.5724 8.87557C95.9882 9.64367 96.1903 10.6007 96.1786 11.7466C96.1844 12.6138 96.0666 13.3695 95.8256 14.0137C95.5841 14.6517 95.2584 15.1813 94.8484 15.6025C94.4384 16.0237 93.9798 16.3396 93.4729 16.5502C92.9666 16.7608 92.4539 16.8661 91.9348 16.8661C91.1144 16.8661 90.3787 16.6307 89.7273 16.16C89.5632 16.0399 89.4079 15.9098 89.2613 15.7697H89.2024V20.6198H86.3434ZM91.2654 14.4132C91.6875 14.407 92.0585 14.2924 92.3784 14.0694C92.6978 13.8464 92.9486 13.5305 93.1292 13.1217C93.3103 12.7129 93.398 12.2359 93.3916 11.6908C93.398 11.1334 93.3074 10.6564 93.1204 10.26C92.9393 9.85736 92.6832 9.55071 92.3511 9.34012C92.0196 9.12337 91.6393 9.01802 91.2113 9.02422C90.8072 9.01802 90.445 9.12026 90.1256 9.33086C89.8057 9.54146 89.5525 9.84807 89.3655 10.2507C89.1786 10.6471 89.0851 11.1272 89.0851 11.6908C89.0851 12.2359 89.1786 12.7129 89.3655 13.1217C89.5583 13.5305 89.8178 13.8464 90.1436 14.0694C90.4693 14.2924 90.8432 14.407 91.2654 14.4132Z" fill="#222222"/>
<path d="M98.9314 16.5594C99.4621 16.7638 100.017 16.866 100.596 16.866C101.26 16.866 101.866 16.7329 102.415 16.4665C102.97 16.2002 103.413 15.8285 103.745 15.3516C104.083 14.8684 104.251 14.314 104.251 13.6884C104.251 13.1929 104.149 12.7748 103.944 12.4341C103.745 12.0934 103.491 11.8147 103.184 11.5979C102.882 11.3811 102.571 11.2107 102.252 11.0869C101.932 10.9568 101.652 10.8577 101.41 10.7895C101.097 10.6966 100.795 10.6006 100.506 10.5015C100.216 10.4024 99.9777 10.2847 99.7908 10.1484C99.6038 10.0122 99.5103 9.83254 99.5103 9.60954C99.5103 9.38659 99.6038 9.20074 99.7908 9.05209C99.9777 8.90344 100.213 8.82909 100.497 8.82909C100.834 8.82909 101.112 8.92199 101.329 9.10784C101.552 9.29364 101.721 9.48569 101.836 9.68389L104.034 8.70829C103.757 8.06409 103.286 7.54689 102.623 7.15664C101.965 6.76644 101.223 6.57129 100.397 6.57129C99.7338 6.57129 99.1422 6.69829 98.6237 6.95224C98.111 7.20619 97.7039 7.55929 97.4021 8.01144C97.1065 8.45744 96.959 8.97464 96.959 9.56309C96.959 10.1206 97.0856 10.5944 97.3388 10.9847C97.5925 11.3749 97.9211 11.697 98.3252 11.951C98.7352 12.1987 99.1695 12.3938 99.6281 12.5363C99.8273 12.5921 100.044 12.654 100.28 12.7221C100.521 12.7903 100.75 12.8708 100.967 12.9637C101.184 13.0566 101.362 13.1681 101.501 13.2982C101.639 13.4283 101.709 13.5831 101.709 13.7628C101.709 13.9052 101.661 14.0384 101.564 14.1623C101.474 14.2862 101.347 14.3884 101.184 14.4689C101.021 14.5432 100.831 14.5804 100.614 14.5804C100.204 14.5804 99.8482 14.4503 99.5463 14.1902C99.245 13.93 99.019 13.6544 98.8681 13.3632L96.624 14.376C96.829 14.8777 97.1338 15.3175 97.5379 15.6953C97.942 16.067 98.4065 16.355 98.9314 16.5594Z" fill="#222222"/>
<path d="M115.874 16.7174V6.71999H118.597V7.99289H118.647C118.86 7.68874 119.099 7.43169 119.366 7.22169C119.909 6.78809 120.551 6.57129 121.293 6.57129C121.908 6.57129 122.43 6.72614 122.859 7.03589C123.189 7.26674 123.458 7.57644 123.666 7.96499H123.718C124.026 7.56149 124.4 7.24554 124.84 7.01729C125.413 6.71999 126.037 6.57129 126.713 6.57129C127.358 6.57129 127.889 6.68899 128.305 6.92439C128.721 7.15354 129.047 7.45709 129.282 7.83494C129.517 8.20659 129.683 8.61539 129.78 9.06139C129.877 9.50114 129.925 9.92854 129.925 10.3436V16.7174H127.047V10.7059C127.047 10.1608 126.936 9.74274 126.713 9.45159C126.496 9.15429 126.176 9.00564 125.754 9.00564C125.476 9.00564 125.229 9.07069 125.012 9.20074C124.801 9.32464 124.632 9.51354 124.505 9.76749C124.385 10.0215 124.324 10.3343 124.324 10.7059V16.7174H121.465V10.7059C121.465 10.1608 121.354 9.74274 121.13 9.45159C120.907 9.15429 120.584 9.00564 120.162 9.00564C119.752 9.00564 119.412 9.15119 119.14 9.44234C118.869 9.72724 118.733 10.1546 118.733 10.7245V16.7174H115.874Z" fill="#222222"/>
<path d="M108.877 16.8661C108.208 16.8661 107.599 16.7205 107.05 16.4294C106.501 16.1321 106.063 15.6985 105.738 15.1286C105.418 14.5526 105.258 13.8433 105.258 13.0009V6.72H108.117V12.6107C108.117 13.1867 108.262 13.6265 108.552 13.93C108.847 14.2274 109.206 14.376 109.629 14.376C109.942 14.376 110.217 14.3048 110.452 14.1623C110.693 14.0199 110.88 13.8186 111.013 13.5584C111.152 13.292 111.221 12.9761 111.221 12.6107V6.72H114.08V13.2146C114.08 13.5739 114.131 13.834 114.234 13.9951C114.336 14.1561 114.544 14.2955 114.858 14.4132L113.845 16.8661C113.127 16.6741 112.602 16.4232 112.27 16.1135C112.103 15.9575 111.977 15.7778 111.891 15.5746H111.818C111.565 15.8354 111.285 16.0677 110.977 16.2715C110.367 16.6679 109.667 16.8661 108.877 16.8661Z" fill="#222222"/>
<path fill-rule="evenodd" clip-rule="evenodd" d="M75.6805 16.866C74.7451 16.866 73.8916 16.6462 73.1199 16.2064C72.3535 15.7666 71.7415 15.1595 71.2829 14.3853C70.8305 13.611 70.6046 12.719 70.6046 11.7094C70.6046 10.6997 70.8305 9.80779 71.2829 9.03349C71.7415 8.25924 72.3535 7.65529 73.1199 7.22169C73.8916 6.78809 74.7451 6.57129 75.6805 6.57129C76.6333 6.57129 77.4927 6.78809 78.259 7.22169C79.0249 7.65529 79.6311 8.25924 80.0776 9.03349C80.5299 9.80779 80.7558 10.6997 80.7558 11.7094C80.7558 12.719 80.5299 13.611 80.0776 14.3853C79.6311 15.1595 79.022 15.7666 78.2498 16.2064C77.4839 16.6462 76.6275 16.866 75.6805 16.866ZM75.6805 14.3574C76.1265 14.3574 76.5276 14.2459 76.8836 14.0229C77.2395 13.7999 77.5199 13.4902 77.7249 13.0938C77.9299 12.6974 78.0326 12.2359 78.0326 11.7094C78.0326 11.2015 77.9333 10.7493 77.7342 10.3528C77.535 9.95644 77.2604 9.64674 76.9108 9.42374C76.5608 9.19454 76.1566 9.07994 75.6985 9.07994C75.2462 9.07994 74.8386 9.19144 74.4769 9.41444C74.1209 9.63124 73.8405 9.93784 73.6355 10.3343C73.4305 10.7307 73.3278 11.1891 73.3278 11.7094C73.3278 12.2359 73.4305 12.6974 73.6355 13.0938C73.8463 13.4902 74.1302 13.7999 74.4861 14.0229C74.842 14.2459 75.2398 14.3574 75.6805 14.3574Z" fill="#222222"/>
<path fill-rule="evenodd" clip-rule="evenodd" d="M62.1424 20.4618C62.8178 20.6662 63.5598 20.7684 64.368 20.7684C65.1222 20.7684 65.8126 20.6693 66.4402 20.4711C67.0673 20.2791 67.6102 19.9879 68.0684 19.5977C68.5329 19.2075 68.8917 18.7243 69.1454 18.1482C69.3986 17.5722 69.5252 16.9032 69.5252 16.1413V6.71069H66.9286V7.68624H66.8745C66.7017 7.51639 66.5147 7.36154 66.3132 7.22169C65.686 6.78189 64.9533 6.56204 64.1148 6.56204C63.3908 6.56204 62.6941 6.75094 62.0246 7.12879C61.3551 7.50044 60.8064 8.05794 60.378 8.80124C59.9558 9.53834 59.7445 10.4643 59.7445 11.5793C59.7445 12.4155 59.8682 13.1433 60.1155 13.7628C60.3629 14.3822 60.6915 14.8994 61.102 15.3144C61.5183 15.7232 61.9793 16.0298 62.4862 16.2342C62.993 16.4325 63.5023 16.5316 64.015 16.5316C64.8418 16.5316 65.5775 16.2993 66.2231 15.8347C66.4271 15.6858 66.618 15.5216 66.7947 15.3423H66.838V16.3086C66.838 16.7855 66.6876 17.1696 66.3857 17.4607C66.0843 17.758 65.7192 17.9748 65.2912 18.1111C64.8627 18.2474 64.4493 18.3155 64.0515 18.3155C63.5871 18.3155 63.1284 18.2381 62.6761 18.0832C62.2296 17.9345 61.8377 17.7549 61.5002 17.5443L60.5591 19.8486C60.9452 20.0592 61.473 20.2636 62.1424 20.4618ZM65.8701 13.8092C65.5385 14.0322 65.1553 14.1437 64.721 14.1437C64.2926 14.1437 63.9157 14.0322 63.59 13.8092C63.2642 13.58 63.0081 13.2672 62.8212 12.8708C62.6342 12.4682 62.5402 12.0067 62.5402 11.4864C62.5402 10.9661 62.6342 10.5139 62.8212 10.1299C63.014 9.74584 63.2793 9.45159 63.6172 9.24719C63.9551 9.03659 64.3378 8.93129 64.7663 8.93129C65.1943 8.93129 65.5716 9.03349 65.8974 9.23789C66.2231 9.44234 66.4792 9.73654 66.6662 10.1206C66.8531 10.4984 66.9466 10.9537 66.9466 11.4864C66.9466 12.0129 66.8502 12.4775 66.6574 12.8801C66.4641 13.2765 66.2017 13.5862 65.8701 13.8092Z" fill="#222222"/>
<path fill-rule="evenodd" clip-rule="evenodd" d="M53.9427 16.866C53.0078 16.866 52.1543 16.6462 51.3821 16.2064C50.6162 15.7666 50.0037 15.1595 49.5456 14.3853C49.0932 13.611 48.8668 12.719 48.8668 11.7094C48.8668 10.6997 49.0932 9.80779 49.5456 9.03349C50.0037 8.25924 50.6162 7.65529 51.3821 7.22169C52.1543 6.78809 53.0078 6.57129 53.9427 6.57129C54.8955 6.57129 55.7554 6.78809 56.5212 7.22169C57.2871 7.65529 57.8933 8.25924 58.3398 9.03349C58.7921 9.80779 59.0185 10.6997 59.0185 11.7094C59.0185 12.719 58.7921 13.611 58.3398 14.3853C57.8933 15.1595 57.2842 15.7666 56.512 16.2064C55.7461 16.6462 54.8897 16.866 53.9427 16.866ZM53.9427 14.3574C54.3891 14.3574 54.7899 14.2459 55.1458 14.0229C55.5017 13.7999 55.7821 13.4902 55.9876 13.0938C56.1926 12.6974 56.2948 12.2359 56.2948 11.7094C56.2948 11.2015 56.1955 10.7493 55.9964 10.3528C55.7972 9.95644 55.5231 9.64674 55.173 9.42374C54.8235 9.19454 54.4188 9.07994 53.9607 9.07994C53.5084 9.07994 53.1013 9.19144 52.7391 9.41444C52.3832 9.63124 52.1027 9.93784 51.8977 10.3343C51.6927 10.7307 51.59 11.1891 51.59 11.7094C51.59 12.2359 51.6927 12.6974 51.8977 13.0938C52.109 13.4902 52.3924 13.7999 52.7483 14.0229C53.1042 14.2459 53.502 14.3574 53.9427 14.3574Z" fill="#222222"/>
<path d="M41.1376 3.02203V16.7174H48.9097V14.0043H44.1052V3.02203H41.1376Z" fill="#222222"/>
</g>
<defs>
<clipPath id="clip0_7_760">
<rect width="130" height="21" fill="white"/>
</clipPath>
</defs>
</svg>
