<svg width="115" height="30" viewBox="0 0 115 30" fill="none" xmlns="http://www.w3.org/2000/svg">
<g clip-path="url(#clip0_7_682)">
<path fill-rule="evenodd" clip-rule="evenodd" d="M17.4981 6.40128C16.468 6.40128 15.448 6.60362 14.4964 6.99673C13.5447 7.38984 12.68 7.96601 11.9516 8.69239C11.2232 9.41875 10.6454 10.2811 10.2512 11.2301C9.9006 12.0742 9.70134 12.9721 9.66154 13.8831C9.65243 14.0916 9.53606 14.2825 9.34926 14.3756L6.82134 15.6361C6.63454 15.7292 6.51481 15.9201 6.52392 16.1286C6.56372 17.0396 6.76299 17.9375 7.11357 18.7815C7.50779 19.7306 8.08558 20.5929 8.81397 21.3193C9.54234 22.0456 10.4071 22.6218 11.3587 23.0149C12.3104 23.408 13.3304 23.6104 14.3605 23.6104C15.3906 23.6104 16.4106 23.408 17.3623 23.0149C18.314 22.6218 19.1787 22.0456 19.9071 21.3193C20.6355 20.5929 21.2133 19.7306 21.6075 18.7815C21.9581 17.9375 22.1573 17.0396 22.1971 16.1286C22.2062 15.9201 22.3226 15.7292 22.5094 15.6361L25.0373 14.3756C25.2241 14.2825 25.3439 14.0916 25.3348 13.8831C25.295 12.9721 25.0957 12.0742 24.7451 11.2301C24.3509 10.2811 23.7731 9.41875 23.0447 8.69239C22.3163 7.96601 21.4516 7.38984 20.4999 6.99673C19.5482 6.60362 18.5282 6.40128 17.4981 6.40128ZM21.1216 12.7269C21.2751 13.0963 21.3705 13.4864 21.4053 13.8834C21.4235 14.0913 21.3021 14.2825 21.1153 14.3756L18.5874 15.6361C18.4006 15.7292 18.2859 15.9203 18.2677 16.1282C18.2329 16.5253 18.1374 16.9154 17.984 17.2848C17.7869 17.7593 17.498 18.1905 17.1338 18.5537C16.7696 18.9168 16.3373 19.2049 15.8614 19.4015C15.3856 19.5981 14.8756 19.6992 14.3605 19.6992C13.8455 19.6992 13.3355 19.5981 12.8596 19.4015C12.3838 19.2049 11.9514 18.9168 11.5872 18.5537C11.2231 18.1905 10.9342 17.7593 10.7371 17.2848C10.5836 16.9154 10.4881 16.5253 10.4534 16.1282C10.4352 15.9203 10.5566 15.7292 10.7434 15.6361L13.2713 14.3756C13.4581 14.2825 13.5728 14.0913 13.591 13.8834C13.6257 13.4864 13.7212 13.0963 13.8747 12.7269C14.0718 12.2523 14.3607 11.8212 14.7249 11.458C15.0891 11.0948 15.5214 10.8067 15.9973 10.6102C16.4731 10.4136 16.9831 10.3125 17.4981 10.3125C18.0132 10.3125 18.5232 10.4136 18.999 10.6102C19.4749 10.8067 19.9072 11.0948 20.2714 11.458C20.6356 11.8212 20.9245 12.2523 21.1216 12.7269Z" fill="#222222"/>
<path fill-rule="evenodd" clip-rule="evenodd" d="M17.4983 0.143433C15.6441 0.143433 13.8081 0.507625 12.095 1.21522C10.382 1.92281 8.82554 2.95996 7.51443 4.26741C6.20335 5.57489 5.16334 7.12707 4.45377 8.83534C3.7878 10.4387 3.42518 12.15 3.38313 13.883C3.37806 14.0916 3.26095 14.2825 3.07415 14.3756L0.546217 15.6361C0.35943 15.7292 0.240454 15.92 0.245517 16.1286C0.287565 17.8616 0.650187 19.573 1.31615 21.1763C2.02571 22.8846 3.06573 24.4368 4.37681 25.7442C5.68793 27.0517 7.2444 28.089 8.95746 28.7963C10.6705 29.5039 12.5065 29.8683 14.3607 29.8683C16.2148 29.8683 18.0508 29.5039 19.7639 28.7963C21.4769 28.089 23.0334 27.0517 24.3445 25.7442C25.6556 24.4368 26.6956 22.8846 27.4051 21.1763C28.0712 19.573 28.4337 17.8616 28.4758 16.1286C28.4808 15.92 28.598 15.7292 28.7846 15.6361L31.3126 14.3756C31.4995 14.2825 31.6184 14.0916 31.6134 13.883C31.5713 12.15 31.2088 10.4387 30.5428 8.83534C29.8332 7.12707 28.7932 5.57489 27.4821 4.26741C26.171 2.95996 24.6145 1.92282 22.9015 1.21522C21.1885 0.507628 19.3524 0.143433 17.4983 0.143433ZM24.5522 16.1286C24.5592 15.92 24.6759 15.7292 24.8627 15.6361L27.3907 14.3756C27.5775 14.2825 27.6969 14.0916 27.6898 13.883C27.6488 12.6638 27.3881 11.4609 26.9193 10.3321C26.4068 9.09832 25.6557 7.97728 24.7088 7.03303C23.7619 6.08874 22.6378 5.33971 21.4006 4.82866C20.1634 4.31761 18.8374 4.05458 17.4983 4.05458C16.1591 4.05458 14.8331 4.31761 13.596 4.82866C12.3588 5.33971 11.2346 6.08874 10.2877 7.03303C9.34082 7.97728 8.5897 9.09832 8.07725 10.3321C7.60839 11.4609 7.3477 12.6638 7.30674 13.883C7.29972 14.0916 7.18297 14.2825 6.99617 14.3756L4.46825 15.6361C4.28145 15.7292 4.16211 15.92 4.16913 16.1286C4.21008 17.3479 4.47078 18.5508 4.93963 19.6796C5.45208 20.9133 6.20321 22.0343 7.15011 22.9786C8.09701 23.9229 9.22115 24.6719 10.4583 25.183C11.6955 25.694 13.0215 25.9571 14.3607 25.9571C15.6998 25.9571 17.0258 25.694 18.263 25.183C19.5001 24.6719 20.6243 23.9229 21.5712 22.9786C22.5181 22.0343 23.2692 20.9133 23.7817 19.6796C24.2505 18.5508 24.5112 17.3479 24.5522 16.1286Z" fill="#222222"/>
<path d="M73.4147 4.7751C72.9967 4.7751 72.6433 4.6306 72.3543 4.34161C72.0653 4.05262 71.9208 3.70171 71.9208 3.28886C71.9208 2.8657 72.0653 2.51221 72.3543 2.22838C72.6433 1.93939 72.9967 1.79489 73.4147 1.79489C73.8328 1.79489 74.1837 1.93939 74.4675 2.22838C74.7565 2.51221 74.901 2.8657 74.901 3.28886C74.901 3.70171 74.7565 4.05262 74.4675 4.34161C74.1837 4.6306 73.8328 4.7751 73.4147 4.7751Z" fill="#222222"/>
<path d="M72.1833 14.0564V5.72726H74.6296V14.0564H72.1833Z" fill="#222222"/>
<path fill-rule="evenodd" clip-rule="evenodd" d="M76.0099 16.5071V5.72724H78.332V6.55552H78.3623C78.5087 6.41138 78.6664 6.27979 78.8351 6.16073C79.3823 5.77885 80.0117 5.58792 80.724 5.58792C81.3485 5.58792 81.9444 5.75047 82.5122 6.07557C83.0849 6.4007 83.5492 6.88321 83.9054 7.52311C84.2615 8.16302 84.4344 8.96033 84.4242 9.91502C84.4292 10.6375 84.3287 11.2671 84.1223 11.8038C83.9159 12.3353 83.637 12.7766 83.2861 13.1275C82.9352 13.4784 82.543 13.7416 82.1095 13.917C81.676 14.0925 81.2373 14.1802 80.7937 14.1802C80.0918 14.1802 79.4621 13.9841 78.9048 13.5919C78.7647 13.4919 78.6317 13.3835 78.5059 13.2668H78.4558V15.1093L76.0099 16.5071ZM80.2209 12.1366C80.582 12.1315 80.8993 12.036 81.1729 11.8502C81.4465 11.6645 81.6606 11.4013 81.8153 11.0607C81.9703 10.7201 82.0451 10.3227 82.0399 9.86859C82.0451 9.40414 81.9678 9.00677 81.8076 8.67649C81.6529 8.34107 81.4336 8.08563 81.1498 7.91017C80.8658 7.72954 80.5407 7.64182 80.1744 7.64697C79.8287 7.64182 79.5191 7.72695 79.2455 7.90241C78.9719 8.07787 78.7553 8.33333 78.5951 8.66876C78.4352 8.99903 78.3554 9.39897 78.3554 9.86859C78.3554 10.3227 78.4352 10.7201 78.5951 11.0607C78.7603 11.4013 78.9824 11.6645 79.2609 11.8502C79.5397 12.036 79.8595 12.1315 80.2209 12.1366Z" fill="#222222"/>
<path d="M88.2038 14.1802C87.7084 14.1802 87.2336 14.0951 86.7795 13.9248C86.3306 13.7545 85.9331 13.5145 85.5874 13.2049C85.2417 12.8901 84.9811 12.5237 84.8058 12.1057L86.7255 11.2619C86.8543 11.5045 87.0478 11.7341 87.306 11.9509C87.5639 12.1676 87.8685 12.276 88.2195 12.276C88.4052 12.276 88.5676 12.245 88.7072 12.1831C88.8464 12.116 88.9549 12.0309 89.0322 11.9276C89.1148 11.8244 89.1561 11.7135 89.1561 11.5948C89.1561 11.4451 89.0966 11.3161 88.978 11.2078C88.8594 11.0994 88.7072 11.0065 88.5214 10.9291C88.3356 10.8517 88.1394 10.7846 87.9329 10.7278C87.7317 10.6711 87.546 10.6194 87.3756 10.573C86.9834 10.4543 86.6118 10.2917 86.2609 10.0853C85.9152 9.87374 85.634 9.60539 85.4171 9.28026C85.2005 8.95516 85.092 8.56038 85.092 8.09593C85.092 7.60569 85.2186 7.17476 85.4713 6.8032C85.7295 6.42649 86.0776 6.13233 86.5163 5.92076C86.9603 5.70916 87.4659 5.60339 88.0337 5.60339C88.7405 5.60339 89.3754 5.76594 89.9377 6.09104C90.5055 6.41617 90.9079 6.84707 91.1454 7.38377L89.2645 8.19655C89.1662 8.03141 89.0217 7.87145 88.831 7.71663C88.6452 7.56182 88.4077 7.48439 88.1187 7.48439C87.8762 7.48439 87.675 7.54632 87.5149 7.67017C87.355 7.79403 87.2749 7.94884 87.2749 8.13462C87.2749 8.3204 87.355 8.47007 87.5149 8.5836C87.675 8.69714 87.8787 8.79517 88.1264 8.87774C88.3741 8.96031 88.6323 9.04032 88.9006 9.11771C89.1071 9.17449 89.3471 9.25706 89.6204 9.36542C89.8939 9.46863 90.1598 9.61054 90.4177 9.79117C90.6808 9.97178 90.8977 10.204 91.0681 10.4878C91.2434 10.7717 91.3312 11.12 91.3312 11.5329C91.3312 12.0541 91.1867 12.5159 90.8977 12.9185C90.614 13.3158 90.2347 13.6254 89.7599 13.8474C89.2901 14.0693 88.7716 14.1802 88.2038 14.1802Z" fill="#222222"/>
<path d="M101.275 14.0564V5.72725H103.605V6.78773H103.647C103.829 6.53433 104.034 6.32017 104.262 6.14524C104.727 5.784 105.277 5.60339 105.911 5.60339C106.438 5.60339 106.884 5.73239 107.251 5.99042C107.533 6.18278 107.764 6.44081 107.942 6.7645H107.985C108.249 6.42831 108.569 6.16514 108.946 5.97495C109.436 5.72725 109.97 5.60339 110.548 5.60339C111.1 5.60339 111.554 5.70143 111.91 5.89753C112.267 6.08849 112.545 6.34134 112.746 6.65615C112.948 6.96578 113.09 7.30638 113.172 7.67793C113.255 8.04432 113.296 8.40041 113.296 8.74615V14.0564H110.835V9.04805C110.835 8.59393 110.739 8.2456 110.548 8.00304C110.362 7.75533 110.089 7.63148 109.728 7.63148C109.49 7.63148 109.278 7.68567 109.093 7.79403C108.912 7.89724 108.768 8.05464 108.659 8.26624C108.556 8.47781 108.505 8.73842 108.505 9.04805V14.0564H106.058V9.04805C106.058 8.59393 105.963 8.2456 105.772 8.00304C105.581 7.75533 105.305 7.63148 104.944 7.63148C104.593 7.63148 104.301 7.75274 104.069 7.9953C103.837 8.23269 103.721 8.58875 103.721 9.06352V14.0564H101.275Z" fill="#222222"/>
<path d="M93.725 13.8164C94.1948 14.059 94.7158 14.1802 95.2888 14.1802C95.9648 14.1802 96.5634 14.0151 97.0847 13.6848C97.3484 13.5151 97.5884 13.3216 97.8044 13.1043H97.8666C97.9404 13.2736 98.0486 13.4232 98.1917 13.5532C98.4754 13.8113 98.9243 14.0203 99.5384 14.1802L100.405 12.1367C100.137 12.0386 99.9589 11.9225 99.8714 11.7883C99.7836 11.6542 99.7398 11.4374 99.7398 11.1381V5.72726H97.2936V10.6349C97.2936 10.9394 97.2342 11.2026 97.1155 11.4245C97.0021 11.6413 96.842 11.809 96.6355 11.9277C96.4343 12.0464 96.1996 12.1057 95.9312 12.1057C95.5701 12.1057 95.263 11.9819 95.01 11.7341C94.7623 11.4813 94.6385 11.1149 94.6385 10.6349V5.72726H92.1925V10.9601C92.1925 11.6619 92.3293 12.2528 92.6026 12.7327C92.8814 13.2075 93.2554 13.5687 93.725 13.8164Z" fill="#222222"/>
<path fill-rule="evenodd" clip-rule="evenodd" d="M66.8871 14.1802C66.087 14.1802 65.3569 13.997 64.6963 13.6306C64.041 13.2642 63.5172 12.7585 63.125 12.1134C62.738 11.4683 62.5446 10.7252 62.5446 9.88406C62.5446 9.04288 62.738 8.29976 63.125 7.65471C63.5172 7.00962 64.041 6.50648 64.6963 6.14524C65.3569 5.784 66.087 5.60339 66.8871 5.60339C67.7024 5.60339 68.4378 5.784 69.0931 6.14524C69.7487 6.50648 70.2672 7.00962 70.649 7.65471C71.0362 8.29976 71.2297 9.04288 71.2297 9.88406C71.2297 10.7252 71.0362 11.4683 70.649 12.1134C70.2672 12.7585 69.7459 13.2642 69.0854 13.6306C68.4301 13.997 67.6971 14.1802 66.8871 14.1802ZM66.8871 12.0902C67.2689 12.0902 67.6121 11.9973 67.9165 11.8115C68.2212 11.6257 68.4609 11.3677 68.6365 11.0374C68.8118 10.7072 68.8996 10.3227 68.8996 9.88406C68.8996 9.4609 68.8146 9.08416 68.6442 8.75389C68.4738 8.42361 68.2391 8.16559 67.9399 7.97981C67.6404 7.78888 67.2947 7.6934 66.9025 7.6934C66.5156 7.6934 66.1671 7.78629 65.8575 7.97207C65.5531 8.15271 65.3131 8.40815 65.1375 8.73842C64.9622 9.0687 64.8744 9.45058 64.8744 9.88406C64.8744 10.3227 64.9622 10.7072 65.1375 11.0374C65.3183 11.3677 65.5608 11.6257 65.8652 11.8115C66.1696 11.9973 66.5103 12.0902 66.8871 12.0902Z" fill="#222222"/>
<path fill-rule="evenodd" clip-rule="evenodd" d="M57.2086 17.4313C56.517 17.4313 55.8823 17.3462 55.3043 17.1759C54.7316 17.0107 54.2799 16.8404 53.9497 16.665L54.7547 14.7453C55.0437 14.9207 55.3792 15.0704 55.7609 15.1942C56.1479 15.3232 56.5401 15.3877 56.9375 15.3877C57.2783 15.3877 57.6317 15.331 57.998 15.2175C58.3646 15.1039 58.6767 14.9233 58.9346 14.6756C59.1928 14.4331 59.3219 14.1131 59.3219 13.7157V12.9107H59.2847C59.1333 13.0601 58.9701 13.1969 58.7953 13.3209C58.2432 13.708 57.6135 13.9015 56.9067 13.9015C56.468 13.9015 56.032 13.8189 55.5986 13.6538C55.1651 13.4835 54.7701 13.2281 54.414 12.8875C54.0631 12.5417 53.782 12.1108 53.5704 11.5948C53.3587 11.0787 53.2531 10.4723 53.2531 9.77566C53.2531 8.84676 53.4336 8.07526 53.7947 7.46114C54.1613 6.84188 54.6309 6.37743 55.2036 6.0678C55.7764 5.75302 56.3725 5.59561 56.9918 5.59561C57.709 5.59561 58.336 5.7788 58.8727 6.14522C59.045 6.26169 59.2052 6.39072 59.353 6.53224H59.3992V5.71946H61.6208V13.5764C61.6208 14.2111 61.5124 14.7685 61.2958 15.2484C61.0789 15.7283 60.7718 16.1309 60.3746 16.456C59.9824 16.7811 59.5178 17.0237 58.9811 17.1836C58.4444 17.3488 57.8535 17.4313 57.2086 17.4313ZM57.5103 11.9121C57.8819 11.9121 58.2097 11.8192 58.4934 11.6335C58.7775 11.4477 59.0018 11.1896 59.1669 10.8594C59.332 10.5239 59.4146 10.1369 59.4146 9.69824C59.4146 9.25443 59.3348 8.87513 59.1746 8.56035C59.0147 8.2404 58.7953 7.99525 58.5168 7.82497C58.238 7.65466 57.9154 7.56953 57.5491 7.56953C57.1828 7.56953 56.855 7.65724 56.566 7.8327C56.277 8.00302 56.0499 8.24813 55.8848 8.56809C55.7249 8.88804 55.6448 9.26475 55.6448 9.69824C55.6448 10.1317 55.7249 10.5162 55.8848 10.8516C56.0447 11.1819 56.2641 11.4425 56.5429 11.6335C56.8214 11.8192 57.144 11.9121 57.5103 11.9121Z" fill="#222222"/>
<path fill-rule="evenodd" clip-rule="evenodd" d="M48.2887 14.1802C47.4886 14.1802 46.7585 13.997 46.0979 13.6306C45.4426 13.2642 44.9188 12.7585 44.5266 12.1134C44.1397 11.4683 43.9462 10.7252 43.9462 9.88406C43.9462 9.04288 44.1397 8.29976 44.5266 7.65471C44.9188 7.00962 45.4426 6.50648 46.0979 6.14524C46.7585 5.784 47.4886 5.60339 48.2887 5.60339C49.104 5.60339 49.8394 5.784 50.4947 6.14524C51.1503 6.50648 51.6688 7.00962 52.0506 7.65471C52.4378 8.29976 52.6313 9.04288 52.6313 9.88406C52.6313 10.7252 52.4378 11.4683 52.0506 12.1134C51.6688 12.7585 51.1475 13.2642 50.487 13.6306C49.8317 13.997 49.0987 14.1802 48.2887 14.1802ZM48.2887 12.0902C48.6705 12.0902 49.0137 11.9973 49.3181 11.8115C49.6228 11.6257 49.8625 11.3677 50.0381 11.0374C50.2134 10.7072 50.3012 10.3227 50.3012 9.88406C50.3012 9.4609 50.2162 9.08416 50.0458 8.75389C49.8754 8.42361 49.6407 8.16559 49.3415 7.97981C49.042 7.78888 48.6964 7.6934 48.3041 7.6934C47.9172 7.6934 47.5687 7.78629 47.2591 7.97207C46.9547 8.15271 46.7147 8.40815 46.5391 8.73842C46.3638 9.0687 46.276 9.45058 46.276 9.88406C46.276 10.3227 46.3638 10.7072 46.5391 11.0374C46.7199 11.3677 46.9624 11.6257 47.2668 11.8115C47.5712 11.9973 47.9119 12.0902 48.2887 12.0902Z" fill="#222222"/>
<path d="M37.334 14.0563V2.64636H39.873V11.796H43.9833V14.0563H37.334Z" fill="#222222"/>
<path fill-rule="evenodd" clip-rule="evenodd" d="M76.0135 18.1565V20.4451H75.9439C75.8428 20.3572 75.7372 20.2746 75.6262 20.1974C75.0846 19.8155 74.4601 19.6246 73.753 19.6246C73.1285 19.6246 72.5299 19.7871 71.9572 20.1122C71.3844 20.4373 70.9198 20.9198 70.5639 21.5597C70.2078 22.1997 70.0374 22.997 70.0528 23.9517C70.0427 24.6741 70.1406 25.3037 70.3471 25.8404C70.5535 26.372 70.8323 26.8132 71.1832 27.1641C71.5341 27.515 71.9263 27.7783 72.3598 27.9536C72.7933 28.1292 73.2317 28.217 73.6757 28.217C74.3775 28.217 75.007 28.0207 75.5643 27.6285C75.8437 27.4294 76.0938 27.1972 76.3149 26.9319H76.3911C76.4492 27.0814 76.5372 27.2233 76.6559 27.3576C76.8158 27.5278 77.0274 27.6852 77.2905 27.8297C77.5589 27.9693 77.8842 28.0981 78.266 28.217L79.1252 26.1733C78.8877 26.0856 78.7176 25.9798 78.6144 25.8559C78.5112 25.7321 78.4595 25.5179 78.4595 25.2134V16.7588L76.0135 18.1565ZM75.2084 25.8869C74.9296 26.0727 74.6098 26.1681 74.2484 26.1733C73.8923 26.1681 73.575 26.0727 73.2964 25.8869C73.0176 25.7011 72.801 25.4379 72.6461 25.0973C72.4966 24.7567 72.4242 24.3594 72.4294 23.9052C72.4242 23.4408 72.5016 23.0434 72.6617 22.7131C72.8217 22.3777 73.041 22.1223 73.3195 21.9468C73.6033 21.7662 73.9286 21.6785 74.295 21.6836C74.6406 21.6785 74.9503 21.7636 75.2239 21.939C75.4974 22.1145 75.714 22.37 75.8739 22.7054C76.0341 23.0357 76.1167 23.4356 76.1216 23.9052C76.1167 24.3594 76.0341 24.7567 75.8739 25.0973C75.714 25.4379 75.4922 25.7011 75.2084 25.8869Z" fill="#A7A7A7"/>
<path d="M106.378 28.0931V19.7639H108.747V20.8553H108.784C108.85 20.7567 108.923 20.6638 109.003 20.5767C109.292 20.267 109.637 20.0348 110.04 19.88C110.442 19.72 110.873 19.64 111.333 19.64C111.89 19.64 112.37 19.769 112.773 20.0271C113.175 20.2851 113.485 20.6386 113.701 21.0876C113.918 21.5365 114.026 22.0552 114.026 22.6435V28.0931H111.58V23.1776C111.58 22.677 111.462 22.3029 111.224 22.0552C110.987 21.8023 110.664 21.6759 110.257 21.6759C109.988 21.6759 109.746 21.7352 109.529 21.8539C109.312 21.9674 109.14 22.1378 109.01 22.3648C108.887 22.5867 108.825 22.8654 108.825 23.2008V28.0931H106.378Z" fill="#A7A7A7"/>
<path fill-rule="evenodd" clip-rule="evenodd" d="M101.351 28.217C100.551 28.217 99.8205 28.0337 99.16 27.6674C98.5046 27.3009 97.9809 26.7952 97.5887 26.1501C97.2017 25.505 97.0079 24.7619 97.0079 23.9207C97.0079 23.0796 97.2017 22.3364 97.5887 21.6914C97.9809 21.0463 98.5046 20.5431 99.16 20.1819C99.8205 19.8206 100.551 19.64 101.351 19.64C102.166 19.64 102.901 19.8206 103.557 20.1819C104.212 20.5431 104.731 21.0463 105.113 21.6914C105.5 22.3364 105.693 23.0796 105.693 23.9207C105.693 24.7619 105.5 25.505 105.113 26.1501C104.731 26.7952 104.21 27.3009 103.549 27.6674C102.894 28.0337 102.161 28.217 101.351 28.217ZM101.351 26.1268C101.733 26.1268 102.076 26.034 102.38 25.8482C102.685 25.6624 102.925 25.4044 103.1 25.0741C103.275 24.7438 103.363 24.3594 103.363 23.9207C103.363 23.4976 103.278 23.1208 103.108 22.7906C102.937 22.4603 102.703 22.2023 102.404 22.0165C102.104 21.8255 101.758 21.7301 101.366 21.7301C100.979 21.7301 100.631 21.8229 100.321 22.0087C100.017 22.1894 99.7767 22.4448 99.6011 22.7751C99.4258 23.1053 99.338 23.4872 99.338 23.9207C99.338 24.3594 99.4258 24.7438 99.6011 25.0741C99.782 25.4044 100.024 25.6624 100.329 25.8482C100.633 26.034 100.974 26.1268 101.351 26.1268Z" fill="#A7A7A7"/>
<path d="M93.8461 28.0932V19.7639H96.292V28.0932H93.8461Z" fill="#A7A7A7"/>
<path d="M94.0159 18.3783C94.3049 18.6673 94.6585 18.8118 95.0766 18.8118C95.4944 18.8118 95.8453 18.6673 96.1294 18.3783C96.4184 18.0893 96.5629 17.7384 96.5629 17.3255C96.5629 16.9024 96.4184 16.5489 96.1294 16.265C95.8453 15.976 95.4944 15.8315 95.0766 15.8315C94.6585 15.8315 94.3049 15.976 94.0159 16.265C93.7269 16.5489 93.5824 16.9024 93.5824 17.3255C93.5824 17.7384 93.7269 18.0893 94.0159 18.3783Z" fill="#A7A7A7"/>
<path d="M89.3516 27.3654C89.8522 27.933 90.616 28.217 91.6428 28.217C91.9577 28.217 92.2673 28.1884 92.5717 28.1317C92.8814 28.075 93.1525 27.99 93.3848 27.8763L92.5951 25.9489C92.5073 25.9953 92.4066 26.034 92.2932 26.0649C92.1795 26.0959 92.0637 26.1114 91.9448 26.1114C91.6921 26.1114 91.4777 26.034 91.3024 25.8792C91.132 25.7192 91.047 25.4612 91.047 25.1051V21.792H92.9744V19.7639H91.047V17.3643H88.6007V19.7639H87.2075V21.792H88.6007V25.167C88.6007 26.0598 88.8512 26.7926 89.3516 27.3654Z" fill="#A7A7A7"/>
<path fill-rule="evenodd" clip-rule="evenodd" d="M80.8091 27.8763C81.2374 28.1033 81.7328 28.217 82.2954 28.217C82.9455 28.217 83.5185 28.0879 84.0139 27.8297C84.4144 27.6233 84.7075 27.3937 84.8933 27.1409H84.931C85.0034 27.2648 85.1 27.3886 85.2214 27.5125C85.4638 27.7601 85.8252 27.9641 86.3052 28.124L86.5914 28.217L87.4507 26.1733L87.2649 26.1114C87.0844 26.0546 86.9578 25.954 86.8857 25.8095C86.8185 25.6598 86.7849 25.4431 86.7849 25.1592V22.6512C86.7849 22.3519 86.7489 22.0294 86.6768 21.6836C86.6096 21.3327 86.4651 21.005 86.2433 20.7005C86.0212 20.3909 85.6807 20.138 85.2214 19.9419C84.762 19.7407 84.1427 19.64 83.3636 19.64C82.8629 19.64 82.3934 19.6813 81.9546 19.7639C81.5212 19.8413 81.1342 19.9394 80.7937 20.058C80.4582 20.1767 80.1871 20.2954 79.9807 20.4141L80.7937 22.2564C80.9845 22.1326 81.2115 22.0242 81.4749 21.9313C81.738 21.8333 82.0116 21.7585 82.2954 21.7069C82.5791 21.6501 82.845 21.6217 83.0927 21.6217C83.3093 21.6217 83.5028 21.6475 83.6732 21.6991C83.8436 21.7456 83.988 21.8152 84.1067 21.9081C84.2253 22.001 84.3131 22.1145 84.3698 22.2487C84.4317 22.3777 84.4628 22.5222 84.4628 22.6822V23.1002H82.8913C82.1688 23.1002 81.5495 23.2111 81.0335 23.433C80.5226 23.655 80.1304 23.9594 79.8568 24.3465C79.5885 24.7335 79.4545 25.1773 79.4545 25.6779C79.4545 26.1527 79.5731 26.581 79.8106 26.9629C80.0531 27.3447 80.3858 27.6492 80.8091 27.8763ZM83.1855 24.6329H84.579V25.1515C84.579 25.456 84.4807 25.6985 84.2847 25.8791C84.0937 26.0598 83.8667 26.1888 83.6035 26.2662C83.3404 26.3436 83.1106 26.3823 82.9146 26.3823C82.703 26.3823 82.512 26.3488 82.3419 26.2817C82.1768 26.2094 82.0477 26.1114 81.9546 25.9875C81.8619 25.8585 81.8154 25.7037 81.8154 25.5231C81.8154 25.2186 81.9315 24.9941 82.1638 24.8496C82.4011 24.7051 82.7418 24.6329 83.1855 24.6329Z" fill="#A7A7A7"/>
<path d="M61.8433 28.0931V19.7639H64.2119V20.8553H64.2493C64.3148 20.7567 64.3875 20.6638 64.4676 20.5767C64.7566 20.267 65.1023 20.0348 65.5046 19.88C65.9073 19.72 66.338 19.64 66.7974 19.64C67.3547 19.64 67.8347 19.769 68.2371 20.0271C68.6398 20.2851 68.9494 20.6386 69.166 21.0876C69.3829 21.5365 69.4913 22.0552 69.4913 22.6435V28.0931H67.0451V23.1776C67.0451 22.677 66.9265 22.3029 66.6889 22.0552C66.4517 21.8023 66.1291 21.6759 65.7215 21.6759C65.4532 21.6759 65.2107 21.7352 64.9938 21.8539C64.7772 21.9674 64.6041 22.1378 64.4753 22.3648C64.3514 22.5867 64.2895 22.8654 64.2895 23.2008V28.0931H61.8433Z" fill="#A7A7A7"/>
<path d="M56.0879 28.217C55.5149 28.217 54.9939 28.0956 54.5241 27.8532C54.0545 27.6054 53.6805 27.2441 53.4017 26.7694C53.1281 26.2894 52.9916 25.6986 52.9916 24.9967V19.7639H55.4375V24.6716C55.4375 25.1515 55.5614 25.5179 55.8091 25.7708C56.062 26.0185 56.3689 26.1424 56.7303 26.1424C56.9986 26.1424 57.2334 26.083 57.4346 25.9643C57.641 25.8456 57.8012 25.6779 57.9146 25.4612C58.0332 25.2392 58.0927 24.9761 58.0927 24.6716V19.7639H60.5386V25.1748C60.5386 25.4741 60.5827 25.6908 60.6705 25.825C60.758 25.9592 60.9361 26.0753 61.2044 26.1733L60.3375 28.217C59.7234 28.0568 59.2745 27.8479 58.9905 27.5898C58.8476 27.4599 58.7392 27.3102 58.6657 27.1409H58.6035C58.3874 27.3582 58.1474 27.5518 57.8838 27.7216C57.3625 28.0519 56.7639 28.217 56.0879 28.217Z" fill="#A7A7A7"/>
<path fill-rule="evenodd" clip-rule="evenodd" d="M48.0169 28.217C47.2168 28.217 46.4866 28.0337 45.8261 27.6674C45.1708 27.3009 44.647 26.7952 44.2548 26.1501C43.8678 25.505 43.6741 24.7619 43.6741 23.9207C43.6741 23.0796 43.8678 22.3364 44.2548 21.6914C44.647 21.0463 45.1708 20.5431 45.8261 20.1819C46.4866 19.8206 47.2168 19.64 48.0169 19.64C48.8321 19.64 49.5676 19.8206 50.2229 20.1819C50.8782 20.5431 51.397 21.0463 51.7787 21.6914C52.166 22.3364 52.3595 23.0796 52.3595 23.9207C52.3595 24.7619 52.166 25.505 51.7787 26.1501C51.397 26.7952 50.8757 27.3009 50.2152 27.6674C49.5599 28.0337 48.8269 28.217 48.0169 28.217ZM48.0169 26.1268C48.3987 26.1268 48.7419 26.034 49.0463 25.8482C49.3507 25.6624 49.5907 25.4044 49.7663 25.0741C49.9416 24.7438 50.0294 24.3594 50.0294 23.9207C50.0294 23.4976 49.9443 23.1208 49.774 22.7906C49.6036 22.4603 49.3688 22.2023 49.0697 22.0165C48.7702 21.8255 48.4245 21.7301 48.0323 21.7301C47.6454 21.7301 47.2969 21.8229 46.9873 22.0087C46.6829 22.1894 46.4429 22.4448 46.2673 22.7751C46.092 23.1053 46.0042 23.4872 46.0042 23.9207C46.0042 24.3594 46.092 24.7438 46.2673 25.0741C46.4481 25.4044 46.6906 25.6624 46.995 25.8482C47.2994 26.034 47.6401 26.1268 48.0169 26.1268Z" fill="#A7A7A7"/>
<path d="M37.3149 28.0932V16.6831H43.9642V18.9434H39.8539V21.5675H43.2753V23.8279H39.8539V28.0932H37.3149Z" fill="#A7A7A7"/>
<path d="M31.6139 13.9049H27.6905C27.6889 14.1049 27.5713 14.2857 27.3912 14.3756L24.8632 15.6361C24.683 15.726 24.568 15.9068 24.5538 16.1068H28.4771C28.4898 15.9068 28.6051 15.726 28.7854 15.6361L31.3134 14.3756C31.4934 14.2858 31.6106 14.105 31.6139 13.9049Z" fill="#222222"/>
<path d="M0.245361 16.1068H4.16878C4.17049 15.9068 4.28793 15.726 4.46815 15.6361L6.9961 14.3756C7.17635 14.2857 7.29137 14.1049 7.30552 13.9049H3.3821C3.36968 14.105 3.25431 14.2858 3.07409 14.3756L0.546138 15.6361C0.365909 15.726 0.248814 15.9068 0.245361 16.1068Z" fill="#222222"/>
<path d="M9.6602 13.9049C9.64421 14.1049 9.52952 14.2857 9.34927 14.3756L6.82132 15.6361C6.64107 15.726 6.52327 15.9068 6.52344 16.1068H10.452C10.4436 15.9073 10.563 15.726 10.7433 15.6361L13.2713 14.3756C13.4516 14.2857 13.5648 14.1045 13.5888 13.9049H9.6602Z" fill="#222222"/>
<path d="M21.407 13.9049C21.4154 14.1045 21.296 14.2857 21.1157 14.3756L18.5877 15.6361C18.4074 15.726 18.2942 15.9073 18.2703 16.1068H22.1988C22.2148 15.9068 22.3295 15.726 22.5097 15.6361L25.0377 14.3756C25.2179 14.2857 25.3357 14.1049 25.3356 13.9049H21.407Z" fill="#222222"/>
</g>
<defs>
<clipPath id="clip0_7_682">
<rect width="114.22" height="30" fill="white"/>
</clipPath>
</defs>
</svg>
