<svg width="113" height="30" viewBox="0 0 113 30" fill="none" xmlns="http://www.w3.org/2000/svg">
<g clip-path="url(#clip0_7_710)">
<path fill-rule="evenodd" clip-rule="evenodd" d="M0.233521 3.30234L2.19679 2.44774C9.49526 -0.729242 17.7859 -0.729242 25.0844 2.44774L27.0477 3.30234V16.5084C27.0477 23.9129 21.0451 29.9156 13.6406 29.9156C6.23607 29.9156 0.233521 23.9129 0.233521 16.5084V3.30234ZM4.48131 6.09518V11.8744C4.93431 11.7648 5.37916 11.6199 5.81171 11.4407C6.90687 10.9871 7.90194 10.3222 8.74014 9.48401C9.57833 8.64582 10.2432 7.65075 10.6969 6.55559C10.9804 5.87116 11.1779 5.15599 11.2862 4.42649C8.96915 4.6508 6.67664 5.20705 4.48131 6.09518ZM4.48208 16.6292C4.93481 16.7389 5.3794 16.8837 5.81171 17.0627C6.90687 17.5164 7.90194 18.1812 8.74014 19.0194C9.57833 19.8576 10.2432 20.8527 10.6969 21.9479C11.1486 23.0385 11.382 24.2072 11.384 25.3876C7.45407 24.3919 4.53674 20.8557 4.48208 16.6292ZM13.5079 18.1997C12.9999 17.4133 12.409 16.681 11.7438 16.0158C11.0786 15.3506 10.3463 14.7597 9.55988 14.2517C10.3463 13.7438 11.0786 13.1528 11.7438 12.4876C12.409 11.8225 12.9999 11.0902 13.5079 10.3038C14.0158 11.0902 14.6068 11.8225 15.2719 12.4876C15.9371 13.1528 16.6694 13.7438 17.4558 14.2517C16.6694 14.7597 15.9371 15.3506 15.2719 16.0158C14.6068 16.681 14.0158 17.4133 13.5079 18.1997ZM15.6317 25.4506C19.7139 24.5457 22.7715 20.9169 22.7997 16.5691C22.255 16.6837 21.7207 16.8487 21.204 17.0627C20.1088 17.5164 19.1138 18.1812 18.2756 19.0194C17.4374 19.8576 16.7725 20.8527 16.3189 21.9479C15.8652 23.043 15.6317 24.2168 15.6317 25.4022V25.4506ZM21.204 11.4407C21.7208 11.6548 22.2551 11.8198 22.7999 11.9345V6.09518C20.5196 5.17267 18.1345 4.60824 15.7259 4.40193C15.8334 5.13996 16.0322 5.86349 16.3189 6.55559C16.7725 7.65075 17.4374 8.64582 18.2756 9.48401C19.1138 10.3222 20.1088 10.9871 21.204 11.4407Z" fill="#222222"/>
<path fill-rule="evenodd" clip-rule="evenodd" d="M58.9452 27.2808C58.308 27.2808 57.7346 27.1279 57.2248 26.8221C56.7151 26.5076 56.3116 26.0828 56.0142 25.5476C55.7254 25.0039 55.5809 24.3922 55.5809 23.7126C55.5809 23.0244 55.7254 22.4128 56.0142 21.8775C56.3116 21.3423 56.7108 20.9218 57.2121 20.6159C57.7218 20.3016 58.2995 20.1444 58.9452 20.1444C59.5314 20.1444 60.0539 20.2719 60.5126 20.5267C60.8883 20.7354 61.1984 21.0038 61.4429 21.332V17.4811H62.3986V27.1279H61.4429V26.0148C61.214 26.3766 60.9082 26.667 60.5254 26.8858C60.0581 27.1491 59.5314 27.2808 58.9452 27.2808ZM58.9962 26.325C59.4549 26.325 59.867 26.2103 60.2323 25.9809C60.6061 25.7515 60.8992 25.4414 61.1116 25.0506C61.3324 24.6513 61.4429 24.2053 61.4429 23.7126C61.4429 23.2198 61.3324 22.7781 61.1116 22.3873C60.8992 21.988 60.6061 21.6736 60.2323 21.4443C59.867 21.2149 59.4549 21.1002 58.9962 21.1002C58.5459 21.1002 58.1381 21.2149 57.7728 21.4443C57.4075 21.6736 57.1186 21.9837 56.9062 22.3745C56.7023 22.7653 56.6004 23.2113 56.6004 23.7126C56.6004 24.2053 56.7023 24.6513 56.9062 25.0506C57.1186 25.4414 57.4032 25.7515 57.76 25.9809C58.1254 26.2103 58.5374 26.325 58.9962 26.325Z" fill="#222222"/>
<path fill-rule="evenodd" clip-rule="evenodd" d="M65.355 26.822C65.8732 27.1279 66.4509 27.2808 67.0881 27.2808C67.5554 27.2808 67.9801 27.2043 68.3624 27.0514C68.7532 26.89 69.0888 26.6819 69.3692 26.4269C69.6495 26.1635 69.8577 25.8789 69.9936 25.5731L69.178 25.1398C68.9656 25.4966 68.6895 25.794 68.3497 26.0318C68.0099 26.2697 67.5893 26.3887 67.0881 26.3887C66.6548 26.3887 66.247 26.2782 65.8647 26.0573C65.4909 25.8364 65.1936 25.5264 64.9727 25.1271C64.8012 24.7976 64.7128 24.4238 64.7075 24.0056H70.0828C70.0998 23.8952 70.1125 23.789 70.121 23.6871C70.1295 23.5766 70.1338 23.4789 70.1338 23.394C70.1338 22.9862 70.0616 22.5911 69.9171 22.2088C69.7727 21.818 69.5646 21.4697 69.2927 21.1639C69.0208 20.8495 68.6895 20.6032 68.2987 20.4248C67.9164 20.2379 67.4789 20.1444 66.9862 20.1444C66.366 20.1444 65.8053 20.2973 65.304 20.6032C64.8113 20.909 64.4205 21.3295 64.1316 21.8648C63.8428 22.3915 63.6984 22.9989 63.6984 23.6871C63.6984 24.3752 63.847 24.9911 64.1444 25.5349C64.4417 26.0786 64.8453 26.5076 65.355 26.822ZM64.7226 23.1136C64.7542 22.8123 64.8333 22.5405 64.96 22.298C65.1639 21.8987 65.4442 21.5887 65.801 21.3678C66.1663 21.1469 66.5614 21.0364 66.9862 21.0364C67.4109 21.0364 67.7932 21.1469 68.1331 21.3678C68.4729 21.5802 68.732 21.8733 68.9104 22.2471C69.0447 22.5096 69.1108 22.7985 69.1093 23.1136H64.7226Z" fill="#222222"/>
<path d="M71.4368 20.2973H72.3925V21.1294C72.5667 20.8606 72.7918 20.6427 73.0679 20.4757C73.4417 20.2549 73.8495 20.1444 74.2913 20.1444C74.818 20.1444 75.2938 20.2931 75.7185 20.5904C76.0469 20.8203 76.3018 21.1034 76.4829 21.4399C76.6578 21.0698 76.9084 20.7782 77.235 20.5649C77.6598 20.2846 78.127 20.1444 78.6368 20.1444C79.0955 20.1444 79.5161 20.2549 79.8984 20.4757C80.2892 20.6966 80.5992 21.0025 80.8286 21.3933C81.0665 21.7756 81.1854 22.2088 81.1854 22.6931V27.1279H80.2297V23.0626C80.2297 22.6464 80.1532 22.2938 80.0003 22.0049C79.8559 21.7161 79.6562 21.4952 79.4014 21.3423C79.1465 21.1809 78.8534 21.1002 78.5221 21.1002C78.1992 21.1002 77.9062 21.1809 77.6428 21.3423C77.3794 21.4952 77.1713 21.7203 77.0184 22.0177C76.8654 22.3065 76.789 22.6549 76.789 23.0626V27.1279H75.8332V23.0626C75.8332 22.6464 75.7568 22.2938 75.6038 22.0049C75.4594 21.7161 75.2598 21.4952 75.0049 21.3423C74.75 21.1809 74.4569 21.1002 74.1256 21.1002C73.7943 21.1002 73.4969 21.1809 73.2336 21.3423C72.9787 21.4952 72.7748 21.7203 72.6219 22.0177C72.469 22.3065 72.3925 22.6549 72.3925 23.0626V27.1279H71.4368V20.2973Z" fill="#222222"/>
<path d="M82.6438 29.9314C82.5079 29.9314 82.3677 29.9187 82.2233 29.8932C82.0874 29.8762 81.9514 29.8422 81.8155 29.7912V28.8992C81.9005 28.9077 82.0067 28.9204 82.1341 28.9374C82.27 28.9629 82.406 28.9757 82.5419 28.9757C82.9582 28.9757 83.2768 28.8865 83.4976 28.7081C83.7185 28.5381 83.9352 28.2068 84.1475 27.7141L84.3945 27.1329L81.6626 20.2973H82.6948L84.931 25.9357L87.155 20.2973H88.2127L85.0906 27.9944C84.9546 28.3258 84.7805 28.6401 84.5681 28.9374C84.3642 29.2348 84.1051 29.4727 83.7907 29.6511C83.4764 29.838 83.0941 29.9314 82.6438 29.9314Z" fill="#222222"/>
<path fill-rule="evenodd" clip-rule="evenodd" d="M49.7664 27.0387C50.1063 27.2001 50.4928 27.2808 50.9264 27.2808C51.3256 27.2808 51.691 27.2213 52.022 27.1024C52.3618 26.975 52.6549 26.8093 52.9013 26.6054C53.072 26.4631 53.2122 26.3114 53.3218 26.1501V27.1279H54.2779V22.4382C54.2779 21.9879 54.1674 21.5929 53.9463 21.2531C53.7339 20.9048 53.4323 20.6329 53.0418 20.4375C52.6592 20.2421 52.2177 20.1444 51.7162 20.1444C51.3341 20.1444 50.9643 20.2166 50.6075 20.361C50.2507 20.497 49.9321 20.6839 49.6518 20.9218C49.3802 21.1596 49.1802 21.423 49.0528 21.7118L49.9196 22.1833C50.0723 21.852 50.3059 21.5844 50.6205 21.3805C50.9346 21.1681 51.2999 21.0619 51.7162 21.0619C52.1919 21.0619 52.5787 21.1894 52.8761 21.4442C53.1732 21.6991 53.3218 22.0304 53.3218 22.4382V22.7908L50.8496 23.2028C50.3484 23.2878 49.9364 23.4322 49.6138 23.6361C49.2907 23.84 49.0528 24.0906 48.8999 24.3879C48.7472 24.6768 48.6708 24.9996 48.6708 25.3564C48.6708 25.7302 48.7682 26.0616 48.9636 26.3504C49.1593 26.6394 49.4266 26.8688 49.7664 27.0387ZM53.3218 23.6573V24.1713C53.3218 24.5876 53.2244 24.9656 53.0287 25.3055C52.8333 25.6453 52.5615 25.9172 52.2134 26.121C51.8651 26.3164 51.4573 26.4141 50.9898 26.4141C50.6075 26.4141 50.2932 26.3079 50.0468 26.0956C49.8092 25.8832 49.6902 25.6241 49.6902 25.3182C49.6902 25.0039 49.7964 24.732 50.0086 24.5026C50.2294 24.2733 50.5863 24.1161 51.079 24.0311L53.3218 23.6573Z" fill="#222222"/>
<path d="M44.9389 27.2808C44.2677 27.2808 43.6773 27.1236 43.1675 26.8093C42.6578 26.4949 42.2585 26.0701 41.9697 25.5349C41.6808 24.9911 41.5364 24.3795 41.5364 23.6998C41.5364 23.0202 41.6808 22.4127 41.9697 21.8775C42.2585 21.3423 42.6578 20.9218 43.1675 20.6159C43.6773 20.3016 44.2677 20.1444 44.9389 20.1444C45.3636 20.1444 45.7629 20.2209 46.1367 20.3738C46.5105 20.5267 46.8419 20.7349 47.1307 20.9982C47.4196 21.2531 47.6362 21.5504 47.7806 21.8902L46.9141 22.3363C46.7442 21.971 46.4851 21.6736 46.1367 21.4442C45.7884 21.2149 45.3891 21.1002 44.9389 21.1002C44.4886 21.1002 44.0808 21.2149 43.7155 21.4442C43.3587 21.6651 43.0741 21.9752 42.8617 22.3745C42.6578 22.7653 42.5558 23.2113 42.5558 23.7125C42.5558 24.2053 42.6578 24.6513 42.8617 25.0506C43.0741 25.4414 43.3587 25.7515 43.7155 25.9809C44.0808 26.2103 44.4886 26.3249 44.9389 26.3249C45.3891 26.3249 45.7842 26.2103 46.124 25.9809C46.4723 25.7515 46.7357 25.4456 46.9141 25.0633L47.7806 25.5349C47.6362 25.8662 47.4196 26.1635 47.1307 26.4269C46.8419 26.6904 46.5105 26.8985 46.1367 27.0514C45.7629 27.2043 45.3636 27.2808 44.9389 27.2808Z" fill="#222222"/>
<path fill-rule="evenodd" clip-rule="evenodd" d="M36.76 17.6341L33.2938 27.128H34.3643L35.1926 24.8086H39.4361L40.2517 27.128H41.3221L37.8559 17.6341H36.76ZM39.0793 23.8529H35.5239L37.3075 18.8307L39.0793 23.8529Z" fill="#222222"/>
<path d="M34.1577 2.25632V13.588H41.3067V11.5346H36.5152V2.25632H34.1577Z" fill="#222222"/>
<path d="M70.1611 13.588H72.4427V5.28314H70.1611V13.588Z" fill="#222222"/>
<path d="M70.1611 2.25632V4.53789H72.4427V2.25632H70.1611Z" fill="#222222"/>
<path fill-rule="evenodd" clip-rule="evenodd" d="M73.656 16.63V5.28311H75.7855V6.14467C76.0316 5.85513 76.3356 5.6237 76.698 5.45042C77.1745 5.21719 77.7172 5.10059 78.3257 5.10059C79.1165 5.10059 79.8312 5.29325 80.4703 5.67858C81.109 6.0639 81.6161 6.58612 81.9912 7.24524C82.3664 7.89422 82.5541 8.62431 82.5541 9.43553C82.5541 10.2366 82.3664 10.9667 81.9912 11.6258C81.6262 12.2849 81.1241 12.8072 80.4854 13.1925C79.8466 13.5778 79.1216 13.7705 78.3103 13.7705C77.7424 13.7705 77.2151 13.6691 76.7285 13.4663C76.4287 13.3323 76.1651 13.1603 75.9376 12.9502V16.63H73.656ZM78.0365 11.7171C78.4624 11.7171 78.8375 11.6208 79.1622 11.4281C79.4866 11.2354 79.7402 10.9667 79.9226 10.6219C80.1052 10.2772 80.1963 9.88171 80.1963 9.43553C80.1963 8.98936 80.1052 8.59896 79.9226 8.26434C79.7402 7.91958 79.4866 7.65085 79.1622 7.45819C78.8375 7.25538 78.4624 7.15397 78.0365 7.15397C77.6309 7.15397 77.2658 7.25031 76.9414 7.44298C76.6271 7.63564 76.3786 7.90434 76.1962 8.24913C76.0236 8.59389 75.9376 8.98936 75.9376 9.43553C75.9376 9.88171 76.0236 10.2772 76.1962 10.6219C76.3786 10.9667 76.6271 11.2354 76.9414 11.4281C77.2658 11.6208 77.6309 11.7171 78.0365 11.7171Z" fill="#222222"/>
<path d="M84.3012 13.1317C84.9806 13.5575 85.7765 13.7705 86.6893 13.7705C87.3381 13.7705 87.901 13.664 88.3775 13.4511C88.8541 13.228 89.2244 12.9238 89.488 12.5385C89.7618 12.1531 89.8988 11.7019 89.8988 11.1847C89.8988 10.5864 89.7161 10.0845 89.351 9.6789C88.986 9.26315 88.4587 8.95386 87.7693 8.75106L86.4458 8.35559C86.243 8.29476 86.0707 8.22884 85.9287 8.15785C85.797 8.08689 85.7006 8.00575 85.6398 7.91451C85.579 7.82323 85.5485 7.72182 85.5485 7.61029C85.5485 7.39734 85.6295 7.23003 85.7919 7.10836C85.9642 6.98666 86.1973 6.92583 86.4915 6.92583C86.8972 6.92583 87.2572 7.03229 87.5715 7.24524C87.8959 7.44805 88.1189 7.72182 88.2408 8.0666L89.929 7.27567C89.6755 6.58612 89.2395 6.05376 88.621 5.67858C88.0125 5.29325 87.3028 5.10059 86.4915 5.10059C85.8729 5.10059 85.3255 5.21212 84.8487 5.43521C84.3721 5.64815 84.002 5.94728 83.7384 6.3326C83.4748 6.71796 83.3431 7.16918 83.3431 7.68635C83.3431 8.27448 83.5255 8.78655 83.8905 9.22259C84.2556 9.64848 84.7778 9.95775 85.4572 10.1504L86.8717 10.5459C87.0543 10.5966 87.2064 10.6574 87.328 10.7284C87.4496 10.7994 87.541 10.8805 87.6018 10.9718C87.6628 11.0529 87.6931 11.1543 87.6931 11.276C87.6931 11.5092 87.6068 11.6917 87.4345 11.8236C87.2622 11.9554 87.0137 12.0213 86.6893 12.0213C86.243 12.0213 85.8376 11.8946 85.4723 11.641C85.1072 11.3875 84.8184 11.0377 84.6055 10.5915L82.9324 11.3825C83.1756 12.1126 83.6319 12.6956 84.3012 13.1317Z" fill="#222222"/>
<path d="M99.4553 5.28311H101.585V6.28633C101.741 5.9828 101.959 5.73964 102.239 5.55688C102.705 5.25268 103.263 5.10059 103.912 5.10059C104.602 5.10059 105.205 5.27804 105.722 5.63294C106.03 5.83405 106.27 6.07657 106.443 6.36051C106.663 6.03921 106.925 5.78148 107.228 5.5873C107.735 5.26282 108.328 5.10059 109.008 5.10059C109.606 5.10059 110.133 5.2324 110.589 5.49606C111.056 5.75968 111.421 6.1298 111.684 6.6064C111.948 7.07286 112.08 7.62043 112.08 8.24913V13.588H109.798V8.73584C109.798 8.41136 109.738 8.13252 109.616 7.89929C109.504 7.66606 109.342 7.48354 109.129 7.3517C108.916 7.21989 108.658 7.15397 108.353 7.15397C108.059 7.15397 107.801 7.21989 107.578 7.3517C107.365 7.48354 107.197 7.66606 107.076 7.89929C106.964 8.13252 106.909 8.41136 106.909 8.73584V13.588H104.627V8.73584C104.627 8.41136 104.566 8.13252 104.444 7.89929C104.333 7.66606 104.171 7.48354 103.958 7.3517C103.745 7.21989 103.486 7.15397 103.182 7.15397C102.888 7.15397 102.629 7.21989 102.406 7.3517C102.193 7.48354 102.026 7.66606 101.904 7.89929C101.793 8.13252 101.737 8.41136 101.737 8.73584V13.588H99.4553V5.28311Z" fill="#222222"/>
<path d="M93.787 13.7705C93.1177 13.7705 92.5447 13.6286 92.0682 13.3446C91.6017 13.0506 91.2468 12.645 91.0036 12.1278C90.7601 11.6106 90.6385 11.0073 90.6385 10.3178V5.28314H92.9201V10.1352C92.9201 10.4496 92.9809 10.7284 93.1025 10.9718C93.2345 11.205 93.4169 11.3876 93.6502 11.5194C93.8833 11.6512 94.147 11.7171 94.4411 11.7171C94.7454 11.7171 95.009 11.6512 95.232 11.5194C95.4654 11.3876 95.6427 11.205 95.7643 10.9718C95.8963 10.7284 95.9621 10.4496 95.9621 10.1352V5.28314H98.2437V13.588H96.1142V12.5774C95.9207 12.942 95.647 13.2231 95.2928 13.4207C94.867 13.6539 94.3649 13.7705 93.787 13.7705Z" fill="#222222"/>
<path fill-rule="evenodd" clip-rule="evenodd" d="M64.8321 13.7705C64.0107 13.7705 63.2601 13.5829 62.5808 13.2077C61.9115 12.8325 61.3741 12.3204 60.9685 11.6715C60.5732 11.0123 60.3754 10.267 60.3754 9.43553C60.3754 8.59389 60.5732 7.84859 60.9685 7.1996C61.3741 6.55062 61.9115 6.03855 62.5808 5.66336C63.2601 5.28818 64.0107 5.10059 64.8321 5.10059C65.6532 5.10059 66.3987 5.28818 67.068 5.66336C67.737 6.03855 68.2696 6.55062 68.6649 7.1996C69.0706 7.84859 69.2734 8.59389 69.2734 9.43553C69.2734 10.267 69.0706 11.0123 68.6649 11.6715C68.2696 12.3204 67.737 12.8325 67.068 13.2077C66.3987 13.5829 65.6532 13.7705 64.8321 13.7705ZM64.8321 11.7171C65.2478 11.7171 65.6078 11.6208 65.9118 11.4281C66.2262 11.2354 66.4696 10.9667 66.6419 10.6219C66.8246 10.2772 66.9159 9.88171 66.9159 9.43553C66.9159 8.98936 66.8246 8.59896 66.6419 8.26434C66.4696 7.91958 66.2262 7.65085 65.9118 7.45819C65.6078 7.25538 65.2478 7.15397 64.8321 7.15397C64.4163 7.15397 64.0513 7.25538 63.737 7.45819C63.4224 7.65085 63.1741 7.91958 62.9915 8.26434C62.8192 8.59896 62.7329 8.98936 62.7329 9.43553C62.7329 9.88171 62.8192 10.2772 62.9915 10.6219C63.1741 10.9667 63.4224 11.2354 63.737 11.4281C64.0513 11.6208 64.4163 11.7171 64.8321 11.7171Z" fill="#222222"/>
<path fill-rule="evenodd" clip-rule="evenodd" d="M53.6005 16.6148C54.1479 16.8278 54.7413 16.9342 55.3801 16.9342C56.181 16.9342 56.8859 16.772 57.4944 16.4475C58.113 16.123 58.5996 15.6718 58.9546 15.0938C59.3093 14.5259 59.4869 13.877 59.4869 13.1469V5.28311H57.3574V6.15536C57.1068 5.86139 56.823 5.63145 56.5057 5.46563C56.0594 5.22226 55.5372 5.10059 54.9388 5.10059C54.1785 5.10059 53.4991 5.27297 52.9007 5.61773C52.3025 5.96249 51.831 6.43909 51.4862 7.04751C51.1413 7.64578 50.969 8.3353 50.969 9.1161C50.969 9.89692 51.1413 10.5966 51.4862 11.2151C51.831 11.8236 52.3076 12.3052 52.9161 12.6601C53.5243 13.0049 54.2138 13.1773 54.9845 13.1773C55.5829 13.1773 56.1051 13.0657 56.5511 12.8427C56.793 12.7162 57.0112 12.5556 57.2053 12.3606V13.1469C57.2053 13.5018 57.1294 13.811 56.9772 14.0747C56.8352 14.3384 56.6273 14.5361 56.3536 14.6679C56.0796 14.8099 55.7552 14.8808 55.3801 14.8808C54.9035 14.8808 54.4928 14.7693 54.1479 14.5462C53.8033 14.3231 53.575 14.0189 53.4635 13.6336L51.3492 14.3789C51.5217 14.8961 51.8005 15.3422 52.186 15.7174C52.5813 16.1028 53.0528 16.4019 53.6005 16.6148ZM56.3079 10.8653C56.0239 11.0276 55.6893 11.1087 55.3039 11.1087C54.9186 11.1087 54.5738 11.0276 54.2698 10.8653C53.9756 10.6929 53.7423 10.4597 53.57 10.1656C53.4078 9.87157 53.3265 9.53188 53.3265 9.14652C53.3265 8.75106 53.4078 8.40629 53.57 8.11224C53.7423 7.80802 53.9756 7.57479 54.2698 7.41255C54.5738 7.24017 54.9186 7.15397 55.3039 7.15397C55.6793 7.15397 56.0087 7.24017 56.2925 7.41255C56.5766 7.57479 56.7996 7.80802 56.9618 8.11224C57.1243 8.40629 57.2053 8.75106 57.2053 9.14652C57.2053 9.54199 57.1243 9.88678 56.9618 10.1808C56.8097 10.4749 56.5917 10.7031 56.3079 10.8653Z" fill="#222222"/>
<path fill-rule="evenodd" clip-rule="evenodd" d="M45.9738 13.7705C45.1524 13.7705 44.4021 13.5829 43.7227 13.2077C43.0534 12.8325 42.5161 12.3204 42.1104 11.6715C41.7149 11.0123 41.5173 10.267 41.5173 9.43553C41.5173 8.59389 41.7149 7.84859 42.1104 7.1996C42.5161 6.55062 43.0534 6.03855 43.7227 5.66336C44.4021 5.28818 45.1524 5.10059 45.9738 5.10059C46.7952 5.10059 47.5404 5.28818 48.2097 5.66336C48.879 6.03855 49.4113 6.55062 49.8069 7.1996C50.2126 7.84859 50.4154 8.59389 50.4154 9.43553C50.4154 10.267 50.2126 11.0123 49.8069 11.6715C49.4113 12.3204 48.879 12.8325 48.2097 13.2077C47.5404 13.5829 46.7952 13.7705 45.9738 13.7705ZM45.9738 11.7171C46.3895 11.7171 46.7495 11.6208 47.0538 11.4281C47.3681 11.2354 47.6116 10.9667 47.7839 10.6219C47.9665 10.2772 48.0576 9.88171 48.0576 9.43553C48.0576 8.98936 47.9665 8.59896 47.7839 8.26434C47.6116 7.91958 47.3681 7.65085 47.0538 7.45819C46.7495 7.25538 46.3895 7.15397 45.9738 7.15397C45.558 7.15397 45.193 7.25538 44.8787 7.45819C44.5643 7.65085 44.3158 7.91958 44.1334 8.26434C43.9611 8.59896 43.8749 8.98936 43.8749 9.43553C43.8749 9.88171 43.9611 10.2772 44.1334 10.6219C44.3158 10.9667 44.5643 11.2354 44.8787 11.4281C45.193 11.6208 45.558 11.7171 45.9738 11.7171Z" fill="#222222"/>
</g>
<defs>
<clipPath id="clip0_7_710">
<rect width="112.301" height="30" fill="white"/>
</clipPath>
</defs>
</svg>
