<svg width="114" height="21" viewBox="0 0 114 21" fill="none" xmlns="http://www.w3.org/2000/svg">
<g clip-path="url(#clip0_7_776)">
<path d="M10.3637 21C16.0875 21 20.7273 16.2991 20.7273 10.5V3.15C20.7273 2.31457 20.3997 1.51335 19.8167 0.922614C19.2336 0.331874 18.4428 0 17.6182 0L10.8818 0V4.60635C10.8818 5.6574 10.9451 6.74625 11.4891 7.64085C11.8787 8.28198 12.3997 8.83073 13.017 9.24987C13.6343 9.669 14.3333 9.94871 15.0667 10.07L15.2651 10.1026C15.347 10.1309 15.418 10.1845 15.4683 10.2557C15.5186 10.327 15.5456 10.4124 15.5456 10.5C15.5456 10.5876 15.5186 10.673 15.4683 10.7443C15.418 10.8155 15.347 10.8691 15.2651 10.8974L15.0667 10.93C13.9952 11.1073 13.0057 11.6212 12.238 12.399C11.4703 13.1768 10.9631 14.1793 10.788 15.2649L10.7559 15.466C10.7279 15.5489 10.6751 15.6208 10.6048 15.6718C10.5344 15.7227 10.4501 15.7501 10.3637 15.7501C10.2772 15.7501 10.1929 15.7227 10.1225 15.6718C10.0522 15.6208 9.99936 15.5489 9.97139 15.466L9.93926 15.2649C9.81949 14.5219 9.5434 13.8137 9.12971 13.1883C8.71603 12.5629 8.17442 12.035 7.54163 11.6403C6.65865 11.0891 5.58394 11.025 4.54654 11.025H0.0124512C0.28346 16.58 4.81392 21 10.3637 21Z" fill="#A7A7A7"/>
<path d="M0 9.975H4.54653C5.58393 9.975 6.65864 9.91095 7.54162 9.3597C8.23184 8.92883 8.81287 8.34016 9.23814 7.64085C9.78224 6.74625 9.84545 5.6574 9.84545 4.60635V0H3.10909C2.28451 0 1.4937 0.331874 0.910632 0.922614C0.327564 1.51335 0 2.31457 0 3.15L0 9.975ZM24.0721 1.05C24.0721 1.32848 23.9629 1.59555 23.7686 1.79246C23.5742 1.98938 23.3106 2.1 23.0358 2.1C22.7609 2.1 22.4973 1.98938 22.303 1.79246C22.1086 1.59555 21.9994 1.32848 21.9994 1.05C21.9994 0.771523 22.1086 0.504451 22.303 0.307538C22.4973 0.110625 22.7609 0 23.0358 0C23.3106 0 23.5742 0.110625 23.7686 0.307538C23.9629 0.504451 24.0721 0.771523 24.0721 1.05ZM109.705 6.3546C112.602 6.3546 114 8.40473 114 10.7793V15.2392H110.968V11.3085C110.968 10.2323 110.581 9.34395 109.469 9.34395C108.358 9.34395 107.987 10.2323 107.987 11.3085V15.2387H104.955V11.3085C104.955 10.2323 104.585 9.34395 103.473 9.34395C102.361 9.34395 101.974 10.2323 101.974 11.3085V15.2387H98.9421V10.7788C98.9421 8.4042 100.34 6.35408 103.237 6.35408C104.82 6.35408 105.966 6.98618 106.488 8.0283C107.043 6.98618 108.256 6.35355 109.705 6.35355V6.3546ZM93.494 12.5055C94.4708 12.5055 94.892 11.5999 94.892 10.5231V6.69585H97.9234V10.899C97.9234 13.4106 96.4751 15.4954 93.494 15.4954C90.5124 15.4954 89.0641 13.4111 89.0641 10.899V6.69585H92.0959V10.5231C92.0959 11.5994 92.5167 12.5055 93.494 12.5055ZM84.6061 15.5122C82.7029 15.5122 81.4732 14.846 80.7488 13.5476L82.9386 12.3002C83.2418 12.8468 83.6962 13.1203 84.4543 13.1203C85.0777 13.1203 85.3637 12.8982 85.3637 12.6247C85.3637 11.5826 80.9172 12.642 80.9172 9.32768C80.9172 7.72118 82.2645 6.42285 84.5554 6.42285C86.5597 6.42285 87.6546 7.41353 88.1432 8.3706L85.9534 9.6348C85.7684 9.1224 85.1953 8.81475 84.6227 8.81475C84.1849 8.81475 83.9491 9.0027 83.9491 9.2589C83.9491 10.3184 88.3956 9.34448 88.3956 12.5564C88.3956 14.3504 86.6607 15.5122 84.6061 15.5122ZM74.0135 19.1688H70.9816V10.9505C70.9816 8.33595 72.9185 6.43965 75.6136 6.43965C78.2413 6.43965 80.2456 8.47298 80.2456 10.9505C80.2456 13.6841 78.46 15.4954 75.782 15.4954C75.1586 15.4954 74.5358 15.3074 74.0135 15.0166V19.1688ZM75.6136 12.6079C76.5738 12.6079 77.2138 11.8561 77.2138 10.9673C77.2138 10.0622 76.5738 9.32715 75.6136 9.32715C74.6534 9.32715 74.0135 10.0622 74.0135 10.9678C74.0135 11.8561 74.6534 12.6079 75.6136 12.6079ZM67.9445 5.79075C66.9506 5.79075 66.1257 4.95338 66.1257 3.94538C66.1257 2.93738 66.9506 2.1 67.9445 2.1C68.9384 2.1 69.7639 2.93738 69.7639 3.94538C69.7639 4.95338 68.9384 5.79075 67.9445 5.79075ZM66.4288 6.69585H69.4607V15.2392H66.4288V6.69585ZM60.6117 15.4954C57.984 15.4954 55.9797 13.4453 55.9797 10.9505C55.9797 8.47298 57.984 6.42285 60.6117 6.42285C63.2394 6.42285 65.2438 8.47298 65.2438 10.9505C65.2438 13.4453 63.2394 15.4954 60.6117 15.4954ZM60.6117 12.6079C61.5719 12.6079 62.2119 11.8561 62.2119 10.9673C62.2119 10.0622 61.5719 9.31035 60.6117 9.31035C59.6515 9.31035 59.0116 10.0622 59.0116 10.9673C59.0116 11.8561 59.6515 12.6079 60.6117 12.6079ZM50.2548 19.425C48.1666 19.425 46.6504 18.4853 45.8757 16.8105L48.3852 15.4439C48.6547 16.0251 49.1599 16.6231 50.204 16.6231C51.2995 16.6231 52.0234 15.9222 52.1078 14.6921C51.7037 15.0512 51.0632 15.3242 50.1035 15.3242C47.7619 15.3242 45.8752 13.4962 45.8752 10.9331C45.8752 8.45618 47.88 6.43965 50.5077 6.43965C53.2028 6.43965 55.1397 8.33648 55.1397 10.9505V14.3336C55.1397 17.409 53.0338 19.425 50.2548 19.425ZM50.4569 12.4373C51.3663 12.4373 52.0571 11.8046 52.0571 10.8649C52.0571 9.94245 51.3668 9.32715 50.4569 9.32715C49.5641 9.32715 48.8568 9.94245 48.8568 10.8654C48.8568 11.8052 49.5641 12.4367 50.4569 12.4367V12.4373ZM40.7327 15.4954C38.105 15.4954 36.1002 13.4453 36.1002 10.9505C36.1002 8.47298 38.105 6.42285 40.7327 6.42285C43.3599 6.42285 45.3647 8.47298 45.3647 10.9505C45.3647 13.4453 43.3604 15.4954 40.7327 15.4954ZM40.7327 12.6079C41.6929 12.6079 42.3329 11.8561 42.3329 10.9673C42.3329 10.0622 41.6929 9.31035 40.7327 9.31035C39.7725 9.31035 39.1326 10.0622 39.1326 10.9673C39.1326 11.8561 39.7725 12.6079 40.7327 12.6079ZM30.5795 3.7065V12.3344H35.5991V15.2392H30.1582C28.2383 15.2392 27.4636 14.2139 27.4636 12.5906V3.7065H30.5795Z" fill="#222222"/>
</g>
<defs>
<clipPath id="clip0_7_776">
<rect width="114" height="21" fill="white"/>
</clipPath>
</defs>
</svg>
