<svg width="92" height="21" viewBox="0 0 92 21" fill="none" xmlns="http://www.w3.org/2000/svg">
<g clip-path="url(#clip0_7_773)">
<path fill-rule="evenodd" clip-rule="evenodd" d="M7.84091 14.7C7.14773 14.7 6.48294 14.4234 5.99279 13.9312C5.50264 13.4389 5.22727 12.7712 5.22727 12.075V0H0V12.075C0 16.4241 3.51064 19.95 7.84091 19.95H13.5909V14.7H7.84091ZM23.5227 5.25C22.9049 5.25 22.2932 5.37222 21.7224 5.60967C21.1516 5.84712 20.633 6.19516 20.1961 6.63392C19.7593 7.07268 19.4127 7.59356 19.1763 8.16682C18.9399 8.74008 18.8182 9.3545 18.8182 9.975C18.8182 10.5955 18.9399 11.2099 19.1763 11.7832C19.4127 12.3564 19.7593 12.8773 20.1961 13.3161C20.633 13.7548 21.1516 14.1029 21.7224 14.3403C22.2932 14.5778 22.9049 14.7 23.5227 14.7C24.7704 14.7 25.9671 14.2022 26.8493 13.3161C27.7316 12.43 28.2273 11.2281 28.2273 9.975C28.2273 8.72185 27.7316 7.52003 26.8493 6.63392C25.9671 5.74781 24.7704 5.25 23.5227 5.25ZM13.5909 9.975C13.5909 4.46617 18.0377 0 23.5227 0C29.0077 0 33.4545 4.46617 33.4545 9.975C33.4545 15.4838 29.0077 19.95 23.5227 19.95C18.0377 19.95 13.5909 15.4838 13.5909 9.975ZM79.9773 5.25C78.7295 5.25 77.5329 5.74781 76.6507 6.63392C75.7684 7.52003 75.2727 8.72185 75.2727 9.975C75.2727 11.2281 75.7684 12.43 76.6507 13.3161C77.5329 14.2022 78.7295 14.7 79.9773 14.7C81.225 14.7 82.4216 14.2022 83.3039 13.3161C84.1862 12.43 84.6818 11.2281 84.6818 9.975C84.6818 8.72185 84.1862 7.52003 83.3039 6.63392C82.4216 5.74781 81.225 5.25 79.9773 5.25ZM70.0454 9.975C70.0454 4.46617 74.4923 0 79.9773 0C85.4622 0 89.9091 4.46617 89.9091 9.975C89.9091 15.4838 85.4622 19.95 79.9773 19.95C74.4923 19.95 70.0454 15.4838 70.0454 9.975ZM44.4318 0C38.9468 0 34.5 4.46617 34.5 9.975C34.5 15.4838 38.9468 19.95 44.4318 19.95H59.0682C60.0974 19.95 61.0901 19.7925 62.0237 19.5006L64.8182 21L67.8333 15.3279C68.5992 13.884 68.9998 12.2731 69 10.637V9.975C69 4.46617 64.5532 0 59.0682 0H44.4318ZM63.7727 9.975C63.7727 8.72185 63.2771 7.52003 62.3948 6.63392C61.5125 5.74781 60.3159 5.25 59.0682 5.25H44.4318C43.814 5.25 43.2022 5.37222 42.6315 5.60967C42.0607 5.84712 41.5421 6.19516 41.1052 6.63392C40.6683 7.07268 40.3218 7.59356 40.0854 8.16682C39.849 8.74008 39.7273 9.3545 39.7273 9.975C39.7273 10.5955 39.849 11.2099 40.0854 11.7832C40.3218 12.3564 40.6683 12.8773 41.1052 13.3161C41.5421 13.7548 42.0607 14.1029 42.6315 14.3403C43.2022 14.5778 43.814 14.7 44.4318 14.7H59.0682C60.3096 14.7 61.5007 14.2073 62.3819 13.3291C63.2632 12.4509 63.7631 11.2585 63.7727 10.0117V9.975Z" fill="#222222"/>
<path d="M92 1.3125C92 1.6606 91.8623 1.99444 91.6172 2.24058C91.3722 2.48672 91.0398 2.625 90.6932 2.625C90.3466 2.625 90.0142 2.48672 89.7691 2.24058C89.524 1.99444 89.3864 1.6606 89.3864 1.3125C89.3864 0.964403 89.524 0.630564 89.7691 0.384422C90.0142 0.138281 90.3466 0 90.6932 0C91.0398 0 91.3722 0.138281 91.6172 0.384422C91.8623 0.630564 92 0.964403 92 1.3125Z" fill="#222222"/>
</g>
<defs>
<clipPath id="clip0_7_773">
<rect width="92" height="21" fill="white"/>
</clipPath>
</defs>
</svg>
