<svg width="92" height="22" viewBox="0 0 92 22" fill="none" xmlns="http://www.w3.org/2000/svg">
<g clip-path="url(#clip0_7_779)">
<path fill-rule="evenodd" clip-rule="evenodd" d="M5.45184 1.375V22H0V1.375H5.45184Z" fill="#222222"/>
<path fill-rule="evenodd" clip-rule="evenodd" d="M8.17773 1.375H19.7629C23.5267 1.375 26.5777 4.45304 26.5777 8.25C26.5777 12.047 23.5267 15.125 19.7629 15.125H13.6296V22H8.17773V1.375ZM13.6296 9.625H19.7629C20.5157 9.625 21.1259 9.00939 21.1259 8.25C21.1259 7.49062 20.5157 6.875 19.7629 6.875H13.6296V9.625Z" fill="#222222"/>
<path fill-rule="evenodd" clip-rule="evenodd" d="M47.0222 1.375V12.0312C47.0222 14.4993 49.0053 16.5 51.4518 16.5C53.8982 16.5 55.8815 14.4993 55.8815 12.0312V1.375H61.3334V12.0312C61.3334 17.5369 56.9093 22 51.4518 22C45.9944 22 41.5703 17.5369 41.5703 12.0312V1.375H47.0222Z" fill="#222222"/>
<path fill-rule="evenodd" clip-rule="evenodd" d="M28.6223 11C28.6223 5.68425 32.8938 1.375 38.163 1.375H39.5259V6.875H38.163C35.9047 6.875 34.0741 8.72185 34.0741 11V11.6875C34.0741 17.3829 29.4975 22 23.8519 22H23.1704V16.5H23.8519C26.4865 16.5 28.6223 14.3454 28.6223 11.6875V11Z" fill="#222222"/>
<path d="M92 2.0625C92 3.20159 91.0849 4.125 89.9553 4.125C88.8262 4.125 87.9111 3.20159 87.9111 2.0625C87.9111 0.923412 88.8262 0 89.9553 0C91.0849 0 92 0.923412 92 2.0625Z" fill="#222222"/>
<path d="M67.1872 22L69.7888 11.0099L71.723 17.6216C72.876 21.565 78.4128 21.565 79.5664 17.6216L81.5 11.0099L84.1016 22H89.7065L85.616 4.7187C84.6432 0.609077 78.9028 0.456915 77.7171 4.50939L75.6447 11.5958L73.5717 4.50939C72.3866 0.456939 66.6455 0.609055 65.6727 4.7187L61.5823 22H67.1872Z" fill="#222222"/>
</g>
<defs>
<clipPath id="clip0_7_779">
<rect width="92" height="22" fill="white"/>
</clipPath>
</defs>
</svg>
