<svg width="342" height="552" viewBox="0 0 342 552" fill="none" xmlns="http://www.w3.org/2000/svg">
<path d="M322 0C333.046 0 342 8.95431 342 20V471C342 482.201 342 487.802 339.82 492.08C337.903 495.843 334.843 498.903 331.08 500.82C326.802 503 321.201 503 310 503H265.777C260.403 503 257.715 503 255.522 503.64C250.274 505.17 246.17 509.274 244.64 514.522C244 516.715 244 519.403 244 524.777C244 531.496 244 534.855 243.201 537.597C241.289 544.158 236.158 549.289 229.597 551.201C226.855 552 223.496 552 216.777 552H20C8.95431 552 0 543.046 0 532V20C0 8.95431 8.95431 0 20 0H322Z" fill="#222222"/>
</svg>
