<svg width="28" height="35" viewBox="0 0 28 35" fill="none" xmlns="http://www.w3.org/2000/svg">
<path d="M21.2502 33.754C21.2502 34.0855 21.1185 34.4035 20.8841 34.6379C20.6497 34.8723 20.3317 35.004 20.0002 35.004H7.5002C7.16868 35.004 6.85074 34.8723 6.61632 34.6379C6.3819 34.4035 6.2502 34.0855 6.2502 33.754C6.2502 33.4225 6.3819 33.1045 6.61632 32.8701C6.85074 32.6357 7.16868 32.504 7.5002 32.504H20.0002C20.3317 32.504 20.6497 32.6357 20.8841 32.8701C21.1185 33.1045 21.2502 33.4225 21.2502 33.754ZM27.5002 13.754C27.5056 15.8378 27.0348 17.8953 26.1239 19.7695C25.2129 21.6436 23.8859 23.2849 22.244 24.5681C21.9369 24.8034 21.6878 25.1058 21.5156 25.4522C21.3433 25.7985 21.2526 26.1797 21.2502 26.5665V27.504C21.2502 28.167 20.9868 28.8029 20.518 29.2718C20.0491 29.7406 19.4132 30.004 18.7502 30.004H8.7502C8.08716 30.004 7.45128 29.7406 6.98244 29.2718C6.5136 28.8029 6.2502 28.167 6.2502 27.504V26.5665C6.24995 26.1843 6.16207 25.8073 5.99332 25.4643C5.82456 25.1214 5.57943 24.8217 5.27677 24.5884C3.63916 23.313 2.31311 21.6818 1.39895 19.8183C0.48479 17.9548 0.00647702 15.9078 0.000204452 13.8321C-0.0404205 6.38368 5.97833 0.183678 13.419 0.00399092C15.2523 -0.0401893 17.076 0.282824 18.7826 0.954019C20.4893 1.62521 22.0444 2.63103 23.3565 3.91226C24.6686 5.19349 25.7112 6.72425 26.4228 8.41444C27.1344 10.1046 27.5007 11.9201 27.5002 13.754ZM25.0002 13.754C25.0006 12.2535 24.7009 10.768 24.1186 9.38507C23.5363 8.00213 22.6832 6.74965 21.6096 5.70135C20.536 4.65306 19.2635 3.83014 17.8671 3.28103C16.4706 2.73193 14.9784 2.46773 13.4783 2.50399C7.38458 2.64774 2.46739 7.72118 2.5002 13.8149C2.5058 15.5127 2.89753 17.187 3.64576 18.7111C4.39398 20.2352 5.47909 21.569 6.81895 22.6118C7.42121 23.08 7.90835 23.6798 8.2431 24.3652C8.57784 25.0507 8.7513 25.8037 8.7502 26.5665V27.504H12.5002V20.5212L7.86583 15.8884C7.63128 15.6538 7.49951 15.3357 7.49951 15.004C7.49951 14.6723 7.63128 14.3542 7.86583 14.1196C8.10038 13.8851 8.4185 13.7533 8.7502 13.7533C9.08191 13.7533 9.40003 13.8851 9.63458 14.1196L13.7502 18.2368L17.8658 14.1196C17.982 14.0035 18.1198 13.9114 18.2716 13.8485C18.4233 13.7856 18.586 13.7533 18.7502 13.7533C18.9144 13.7533 19.0771 13.7856 19.2288 13.8485C19.3806 13.9114 19.5184 14.0035 19.6346 14.1196C19.7507 14.2358 19.8428 14.3736 19.9057 14.5254C19.9685 14.6771 20.0009 14.8397 20.0009 15.004C20.0009 15.1682 19.9685 15.3309 19.9057 15.4826C19.8428 15.6344 19.7507 15.7722 19.6346 15.8884L15.0002 20.5212V27.504H18.7502V26.5665C18.7516 25.8014 18.9279 25.0468 19.2656 24.3603C19.6033 23.6738 20.0934 23.0736 20.6986 22.6056C22.0425 21.5553 23.1287 20.2119 23.8742 18.6778C24.6197 17.1437 25.0048 15.4596 25.0002 13.754Z" fill="#222222"/>
</svg>
