<svg width="40" height="28" viewBox="0 0 40 28" fill="none" xmlns="http://www.w3.org/2000/svg">
<path d="M39.7331 9.35975L35.7456 1.38162C35.5987 1.08797 35.3954 0.826139 35.1473 0.61107C34.8992 0.396001 34.6112 0.23191 34.2996 0.128167C33.9881 0.0244244 33.6592 -0.0169379 33.3317 0.00644265C33.0042 0.0298231 32.6845 0.117489 32.3909 0.264432L28.505 2.20662L20.319 0.0409949C20.109 -0.013665 19.8884 -0.013665 19.6784 0.0409949L11.4925 2.20662L7.60652 0.264432C7.3129 0.117489 6.99321 0.0298231 6.6657 0.00644265C6.3382 -0.0169379 6.00929 0.0244244 5.69778 0.128167C5.38626 0.23191 5.09823 0.396001 4.85013 0.61107C4.60203 0.826139 4.39873 1.08797 4.25184 1.38162L0.264336 9.35818C0.117392 9.6518 0.029727 9.9715 0.00634651 10.299C-0.017034 10.6265 0.0243282 10.9554 0.128071 11.2669C0.231814 11.5784 0.395905 11.8665 0.610974 12.1146C0.826043 12.3627 1.08788 12.566 1.38152 12.7129L5.60027 14.8238L14.2706 21.016C14.3983 21.1069 14.542 21.1731 14.694 21.2113L24.694 23.7113C24.9034 23.7638 25.1229 23.7612 25.331 23.7037C25.5391 23.6462 25.7288 23.5358 25.8815 23.3832L34.4862 14.7769L38.6143 12.7129C39.207 12.4162 39.6576 11.8963 39.8671 11.2676C40.0765 10.6388 40.0278 9.95258 39.7315 9.35975H39.7331ZM31.1565 14.5738L25.78 10.2676C25.5391 10.0747 25.2354 9.97768 24.9273 9.99528C24.6192 10.0129 24.3285 10.1438 24.1112 10.3629C21.3284 13.166 18.2268 12.8113 16.2487 11.5613L23.005 4.99881H27.9753L32.2268 13.5004L31.1565 14.5738ZM6.48777 2.49881L9.68621 4.09568L5.6909 12.0722L2.49871 10.4769L6.48777 2.49881ZM24.6128 21.1129L15.5331 18.8441L7.84559 13.3535L12.2206 4.6035L19.9987 2.54256L21.53 2.94725L14.4987 9.77225L14.4862 9.78631C14.2215 10.051 14.0197 10.3717 13.8955 10.7248C13.7714 11.078 13.7281 11.4544 13.7689 11.8265C13.8097 12.1986 13.9335 12.5568 14.1312 12.8746C14.3289 13.1924 14.5955 13.4618 14.9112 13.6629C18.1237 15.7144 22.0003 15.3816 25.0534 12.8816L29.3737 16.3519L24.6128 21.1129ZM34.3003 12.0707L30.3128 4.10193L33.5097 2.49881L37.4987 10.4769L34.3003 12.0707ZM20.5893 26.5504C20.5218 26.8205 20.366 27.0604 20.1466 27.2319C19.9272 27.4035 19.6569 27.4969 19.3784 27.4972C19.2757 27.4971 19.1734 27.4845 19.0737 27.4597L12.5628 25.8316C12.4105 25.794 12.2668 25.7278 12.1393 25.6363L8.02215 22.6957C7.76899 22.4969 7.60227 22.2082 7.55669 21.8895C7.5111 21.5709 7.59018 21.247 7.77745 20.9852C7.96472 20.7235 8.24574 20.544 8.56201 20.4843C8.87828 20.4245 9.2054 20.489 9.47527 20.6644L13.3987 23.4676L19.6862 25.0363C20.0078 25.1167 20.2842 25.3216 20.4547 25.6058C20.6253 25.89 20.6759 26.2304 20.5956 26.5519L20.5893 26.5504Z" fill="#222222"/>
</svg>
