<svg width="33" height="33" viewBox="0 0 33 33" fill="none" xmlns="http://www.w3.org/2000/svg">
<path d="M32.4776 17.6074C32.2121 20.6948 31.0702 23.6422 29.1865 26.1028C27.3027 28.5633 24.7554 30.4347 21.8442 31.4967C18.933 32.5587 15.779 32.7672 12.7534 32.0975C9.72771 31.4279 6.95623 29.9081 4.76501 27.7169C2.57378 25.5257 1.05396 22.7542 0.384352 19.7285C-0.285259 16.7029 -0.0768014 13.5489 0.985199 10.6377C2.0472 7.72653 3.91856 5.1792 6.37912 3.29543C8.83968 1.41166 11.7871 0.269818 14.8745 0.00424679C15.0387 -0.00929578 15.2039 0.00962635 15.3607 0.059933C15.5176 0.11024 15.663 0.190946 15.7886 0.297443C15.9143 0.40394 16.0177 0.534143 16.093 0.680617C16.1684 0.827092 16.2141 0.986969 16.2276 1.15112C16.2412 1.31527 16.2223 1.48049 16.172 1.63733C16.1217 1.79417 16.041 1.93956 15.9345 2.06521C15.828 2.19086 15.6978 2.2943 15.5513 2.36963C15.4048 2.44496 15.2449 2.4907 15.0808 2.50425C12.4676 2.72877 9.97297 3.69498 7.89032 5.28919C5.80767 6.8834 4.22368 9.03929 3.32472 11.5032C2.42576 13.9671 2.24923 16.6365 2.81591 19.1973C3.38258 21.7581 4.66889 24.1038 6.52347 25.9584C8.37805 27.813 10.7237 29.0993 13.2846 29.666C15.8454 30.2327 18.5148 30.0561 20.9787 29.1572C23.4426 28.2582 25.5985 26.6742 27.1927 24.5916C28.7869 22.5089 29.7531 20.0143 29.9776 17.4011C30.005 17.0696 30.1629 16.7625 30.4167 16.5474C30.6704 16.3324 30.9993 16.2269 31.3308 16.2542C31.6623 16.2816 31.9694 16.4395 32.1845 16.6933C32.3995 16.947 32.505 17.2759 32.4776 17.6074ZM14.9777 7.50425V16.2542C14.9777 16.5858 15.1093 16.9037 15.3438 17.1381C15.5782 17.3726 15.8961 17.5042 16.2276 17.5042H24.9776C25.3092 17.5042 25.6271 17.3726 25.8615 17.1381C26.096 16.9037 26.2276 16.5858 26.2276 16.2542C26.2276 15.9227 26.096 15.6048 25.8615 15.3704C25.6271 15.1359 25.3092 15.0042 24.9776 15.0042H17.4776V7.50425C17.4776 7.17273 17.346 6.85478 17.1115 6.62036C16.8771 6.38594 16.5592 6.25425 16.2276 6.25425C15.8961 6.25425 15.5782 6.38594 15.3438 6.62036C15.1093 6.85478 14.9777 7.17273 14.9777 7.50425ZM21.2276 3.75425C21.5985 3.75425 21.961 3.64428 22.2693 3.43825C22.5777 3.23222 22.818 2.93939 22.9599 2.59678C23.1018 2.25417 23.139 1.87717 23.0666 1.51345C22.9943 1.14974 22.8157 0.815645 22.5535 0.553422C22.2913 0.291198 21.9572 0.112622 21.5934 0.0402745C21.2297 -0.0320728 20.8527 0.00505849 20.5101 0.146973C20.1675 0.288887 19.8747 0.52921 19.6686 0.837552C19.4626 1.14589 19.3526 1.50841 19.3526 1.87925C19.3526 2.37653 19.5502 2.85344 19.9018 3.20507C20.2535 3.5567 20.7304 3.75425 21.2276 3.75425ZM26.8526 7.50425C27.2235 7.50425 27.586 7.39428 27.8943 7.18825C28.2027 6.98222 28.443 6.68939 28.5849 6.34678C28.7268 6.00417 28.764 5.62717 28.6916 5.26345C28.6193 4.89974 28.4407 4.56564 28.1785 4.30342C27.9163 4.0412 27.5822 3.86262 27.2184 3.79027C26.8547 3.71793 26.4777 3.75506 26.1351 3.89697C25.7925 4.03889 25.4997 4.27921 25.2936 4.58755C25.0876 4.89589 24.9776 5.25841 24.9776 5.62925C24.9776 6.12653 25.1752 6.60344 25.5268 6.95507C25.8785 7.3067 26.3554 7.50425 26.8526 7.50425ZM30.6026 13.1292C30.9735 13.1292 31.336 13.0193 31.6443 12.8133C31.9527 12.6072 32.193 12.3144 32.3349 11.9718C32.4768 11.6292 32.514 11.2522 32.4416 10.8885C32.3693 10.5247 32.1907 10.1906 31.9285 9.92842C31.6663 9.6662 31.3322 9.48762 30.9684 9.41527C30.6047 9.34293 30.2277 9.38006 29.8851 9.52197C29.5425 9.66389 29.2497 9.90421 29.0436 10.2126C28.8376 10.5209 28.7276 10.8834 28.7276 11.2542C28.7276 11.7515 28.9252 12.2284 29.2768 12.5801C29.6285 12.9317 30.1054 13.1292 30.6026 13.1292Z" fill="#222222"/>
</svg>
