<svg width="35" height="35" viewBox="0 0 35 35" fill="none" xmlns="http://www.w3.org/2000/svg">
<path d="M32.7906 13.5656C32.2016 12.95 31.5922 12.3156 31.3625 11.7578C31.15 11.2469 31.1375 10.4 31.125 9.57969C31.1016 8.05469 31.0766 6.32656 29.875 5.125C28.6734 3.92344 26.9453 3.89844 25.4203 3.875C24.6 3.8625 23.7531 3.85 23.2422 3.6375C22.6859 3.40781 22.05 2.79844 21.4344 2.20937C20.3562 1.17344 19.1312 0 17.5 0C15.8688 0 14.6453 1.17344 13.5656 2.20937C12.95 2.79844 12.3156 3.40781 11.7578 3.6375C11.25 3.85 10.4 3.8625 9.57969 3.875C8.05469 3.89844 6.32656 3.92344 5.125 5.125C3.92344 6.32656 3.90625 8.05469 3.875 9.57969C3.8625 10.4 3.85 11.2469 3.6375 11.7578C3.40781 12.3141 2.79844 12.95 2.20937 13.5656C1.17344 14.6437 0 15.8688 0 17.5C0 19.1312 1.17344 20.3547 2.20937 21.4344C2.79844 22.05 3.40781 22.6844 3.6375 23.2422C3.85 23.7531 3.8625 24.6 3.875 25.4203C3.89844 26.9453 3.92344 28.6734 5.125 29.875C6.32656 31.0766 8.05469 31.1016 9.57969 31.125C10.4 31.1375 11.2469 31.15 11.7578 31.3625C12.3141 31.5922 12.95 32.2016 13.5656 32.7906C14.6437 33.8266 15.8688 35 17.5 35C19.1312 35 20.3547 33.8266 21.4344 32.7906C22.05 32.2016 22.6844 31.5922 23.2422 31.3625C23.7531 31.15 24.6 31.1375 25.4203 31.125C26.9453 31.1016 28.6734 31.0766 29.875 29.875C31.0766 28.6734 31.1016 26.9453 31.125 25.4203C31.1375 24.6 31.15 23.7531 31.3625 23.2422C31.5922 22.6859 32.2016 22.05 32.7906 21.4344C33.8266 20.3562 35 19.1312 35 17.5C35 15.8688 33.8266 14.6453 32.7906 13.5656ZM30.9859 19.7047C30.2375 20.4859 29.4625 21.2938 29.0516 22.2859C28.6578 23.2391 28.6406 24.3281 28.625 25.3828C28.6094 26.4766 28.5922 27.6219 28.1063 28.1063C27.6203 28.5906 26.4828 28.6094 25.3828 28.625C24.3281 28.6406 23.2391 28.6578 22.2859 29.0516C21.2938 29.4625 20.4859 30.2375 19.7047 30.9859C18.9234 31.7344 18.125 32.5 17.5 32.5C16.875 32.5 16.0703 31.7312 15.2953 30.9859C14.5203 30.2406 13.7063 29.4625 12.7141 29.0516C11.7609 28.6578 10.6719 28.6406 9.61719 28.625C8.52344 28.6094 7.37812 28.5922 6.89375 28.1063C6.40937 27.6203 6.39062 26.4828 6.375 25.3828C6.35937 24.3281 6.34219 23.2391 5.94844 22.2859C5.5375 21.2938 4.7625 20.4859 4.01406 19.7047C3.26562 18.9234 2.5 18.125 2.5 17.5C2.5 16.875 3.26875 16.0703 4.01406 15.2953C4.75937 14.5203 5.5375 13.7063 5.94844 12.7141C6.34219 11.7609 6.35937 10.6719 6.375 9.61719C6.39062 8.52344 6.40781 7.37812 6.89375 6.89375C7.37969 6.40937 8.51719 6.39062 9.61719 6.375C10.6719 6.35937 11.7609 6.34219 12.7141 5.94844C13.7063 5.5375 14.5141 4.7625 15.2953 4.01406C16.0766 3.26562 16.875 2.5 17.5 2.5C18.125 2.5 18.9297 3.26875 19.7047 4.01406C20.4797 4.75937 21.2938 5.5375 22.2859 5.94844C23.2391 6.34219 24.3281 6.35937 25.3828 6.375C26.4766 6.39062 27.6219 6.40781 28.1063 6.89375C28.5906 7.37969 28.6094 8.51719 28.625 9.61719C28.6406 10.6719 28.6578 11.7609 29.0516 12.7141C29.4625 13.7063 30.2375 14.5141 30.9859 15.2953C31.7344 16.0766 32.5 16.875 32.5 17.5C32.5 18.125 31.7312 18.9297 30.9859 19.7047ZM24.6344 12.8656C24.7506 12.9817 24.8428 13.1196 24.9057 13.2713C24.9686 13.4231 25.001 13.5857 25.001 13.75C25.001 13.9143 24.9686 14.0769 24.9057 14.2287C24.8428 14.3804 24.7506 14.5183 24.6344 14.6344L15.8844 23.3844C15.7683 23.5006 15.6304 23.5928 15.4787 23.6557C15.3269 23.7186 15.1643 23.751 15 23.751C14.8357 23.751 14.6731 23.7186 14.5213 23.6557C14.3696 23.5928 14.2317 23.5006 14.1156 23.3844L10.3656 19.6344C10.1311 19.3998 9.99931 19.0817 9.99931 18.75C9.99931 18.4183 10.1311 18.1002 10.3656 17.8656C10.6002 17.6311 10.9183 17.4993 11.25 17.4993C11.5817 17.4993 11.8998 17.6311 12.1344 17.8656L15 20.7328L22.8656 12.8656C22.9817 12.7494 23.1196 12.6572 23.2713 12.5943C23.4231 12.5314 23.5857 12.499 23.75 12.499C23.9143 12.499 24.0769 12.5314 24.2287 12.5943C24.3804 12.6572 24.5183 12.7494 24.6344 12.8656Z" fill="#222222"/>
</svg>
