<svg width="30" height="30" viewBox="0 0 30 30" fill="none" xmlns="http://www.w3.org/2000/svg">
<path d="M29.9148 1.26112C29.8969 0.955315 29.7674 0.666714 29.5508 0.450109C29.3342 0.233505 29.0456 0.103977 28.7398 0.0861188C16.8444 -0.612319 7.31632 2.96893 3.25382 9.68768C1.84564 11.986 1.15172 14.6507 1.26007 17.3439C1.34913 19.8314 2.07413 22.3439 3.41476 24.8205L0.36632 27.8674C0.131769 28.1019 -7.81524e-09 28.42 0 28.7517C7.81524e-09 29.0834 0.131769 29.4016 0.36632 29.6361C0.600871 29.8707 0.91899 30.0024 1.25069 30.0024C1.5824 30.0024 1.90052 29.8707 2.13507 29.6361L5.18195 26.5877C7.65695 27.9267 10.171 28.6517 12.6569 28.7408C12.8309 28.7471 13.0043 28.7502 13.1773 28.7502C15.6956 28.7569 18.1662 28.0634 20.3132 26.7471C27.0319 22.6846 30.6148 13.158 29.9148 1.26112ZM19.0241 24.6096C15.4694 26.7627 11.2616 26.7971 7.0382 24.7299L20.8866 10.883C21.0028 10.7669 21.0949 10.629 21.1578 10.4772C21.2206 10.3255 21.253 10.1629 21.253 9.99862C21.253 9.83437 21.2206 9.67174 21.1578 9.52C21.0949 9.36826 21.0028 9.23038 20.8866 9.11424C20.7705 8.99811 20.6326 8.90598 20.4809 8.84313C20.3291 8.78027 20.1665 8.74792 20.0023 8.74792C19.838 8.74792 19.6754 8.78027 19.5236 8.84313C19.3719 8.90598 19.234 8.99811 19.1179 9.11424L5.27101 22.9689C3.21007 18.7502 3.23976 14.5314 5.39132 10.983C8.84288 5.28456 17.0476 2.16424 27.471 2.53612C27.8444 12.9517 24.7226 21.158 19.0241 24.6096Z" fill="#222222"/>
</svg>
