<svg width="30" height="30" viewBox="0 0 30 30" fill="none" xmlns="http://www.w3.org/2000/svg">
<path d="M30 1.25V6.875C30 7.20652 29.8683 7.52446 29.6339 7.75888C29.3995 7.9933 29.0815 8.125 28.75 8.125C28.4185 8.125 28.1005 7.9933 27.8661 7.75888C27.6317 7.52446 27.5 7.20652 27.5 6.875V2.5H23.125C22.7935 2.5 22.4755 2.3683 22.2411 2.13388C22.0067 1.89946 21.875 1.58152 21.875 1.25C21.875 0.918479 22.0067 0.600537 22.2411 0.366117C22.4755 0.131696 22.7935 0 23.125 0H28.75C29.0815 0 29.3995 0.131696 29.6339 0.366117C29.8683 0.600537 30 0.918479 30 1.25ZM28.75 21.875C28.4185 21.875 28.1005 22.0067 27.8661 22.2411C27.6317 22.4755 27.5 22.7935 27.5 23.125V27.5H23.125C22.7935 27.5 22.4755 27.6317 22.2411 27.8661C22.0067 28.1005 21.875 28.4185 21.875 28.75C21.875 29.0815 22.0067 29.3995 22.2411 29.6339C22.4755 29.8683 22.7935 30 23.125 30H28.75C29.0815 30 29.3995 29.8683 29.6339 29.6339C29.8683 29.3995 30 29.0815 30 28.75V23.125C30 22.7935 29.8683 22.4755 29.6339 22.2411C29.3995 22.0067 29.0815 21.875 28.75 21.875ZM6.875 27.5H2.5V23.125C2.5 22.7935 2.3683 22.4755 2.13388 22.2411C1.89946 22.0067 1.58152 21.875 1.25 21.875C0.918479 21.875 0.600537 22.0067 0.366117 22.2411C0.131696 22.4755 0 22.7935 0 23.125V28.75C0 29.0815 0.131696 29.3995 0.366117 29.6339C0.600537 29.8683 0.918479 30 1.25 30H6.875C7.20652 30 7.52446 29.8683 7.75888 29.6339C7.9933 29.3995 8.125 29.0815 8.125 28.75C8.125 28.4185 7.9933 28.1005 7.75888 27.8661C7.52446 27.6317 7.20652 27.5 6.875 27.5ZM1.25 8.125C1.58152 8.125 1.89946 7.9933 2.13388 7.75888C2.3683 7.52446 2.5 7.20652 2.5 6.875V2.5H6.875C7.20652 2.5 7.52446 2.3683 7.75888 2.13388C7.9933 1.89946 8.125 1.58152 8.125 1.25C8.125 0.918479 7.9933 0.600537 7.75888 0.366117C7.52446 0.131696 7.20652 0 6.875 0H1.25C0.918479 0 0.600537 0.131696 0.366117 0.366117C0.131696 0.600537 0 0.918479 0 1.25V6.875C0 7.20652 0.131696 7.52446 0.366117 7.75888C0.600537 7.9933 0.918479 8.125 1.25 8.125ZM22.5 22.5C22.3058 22.5004 22.1142 22.4556 21.9403 22.3691C21.7665 22.2826 21.6152 22.1567 21.4984 22.0016C20.7416 20.9925 19.7602 20.1734 18.632 19.6093C17.5038 19.0452 16.2598 18.7516 14.9984 18.7516C13.7371 18.7516 12.493 19.0452 11.3648 19.6093C10.2366 20.1734 9.25526 20.9925 8.49844 22.0016C8.29911 22.2668 8.00259 22.442 7.67411 22.4885C7.34563 22.5351 7.01209 22.4493 6.74688 22.25C6.48166 22.0507 6.30649 21.7542 6.2599 21.4257C6.2133 21.0972 6.29911 20.7637 6.49844 20.4984C7.60623 19.0151 9.08269 17.8473 10.7812 17.1109C9.85049 16.2612 9.19838 15.1498 8.91052 13.9228C8.62266 12.6958 8.71248 11.4104 9.16821 10.2353C9.62394 9.06029 10.4243 8.05046 11.4642 7.3384C12.5041 6.62633 13.735 6.24529 14.9953 6.24529C16.2556 6.24529 17.4865 6.62633 18.5264 7.3384C19.5664 8.05046 20.3667 9.06029 20.8224 10.2353C21.2781 11.4104 21.368 12.6958 21.0801 13.9228C20.7922 15.1498 20.1401 16.2612 19.2094 17.1109C20.9091 17.8469 22.3867 19.0147 23.4953 20.4984C23.6348 20.6838 23.72 20.9044 23.7412 21.1354C23.7625 21.3664 23.719 21.5988 23.6157 21.8066C23.5124 22.0143 23.3534 22.1892 23.1563 22.3117C22.9593 22.4341 22.732 22.4993 22.5 22.5ZM15 16.25C15.7417 16.25 16.4667 16.0301 17.0834 15.618C17.7001 15.206 18.1807 14.6203 18.4645 13.9351C18.7484 13.2498 18.8226 12.4958 18.6779 11.7684C18.5333 11.041 18.1761 10.3728 17.6517 9.84835C17.1272 9.3239 16.459 8.96675 15.7316 8.82205C15.0042 8.67736 14.2502 8.75162 13.5649 9.03545C12.8797 9.31928 12.294 9.79993 11.882 10.4166C11.4699 11.0333 11.25 11.7583 11.25 12.5C11.25 13.4946 11.6451 14.4484 12.3483 15.1517C13.0516 15.8549 14.0054 16.25 15 16.25Z" fill="#222222"/>
</svg>
