<svg width="451" height="344" viewBox="0 0 451 344" fill="none" xmlns="http://www.w3.org/2000/svg">
<path opacity="0.1" d="M131.946 -49.8284C216.88 -234.403 442.87 40.026 303.914 92.8328C236.288 118.545 250.61 262.201 176.901 248.82C103.304 235.605 97.7188 172.513 72.6702 108.979C41.4838 29.8518 108.004 2.14895 131.946 -49.8284Z" stroke="#FEFEFF" stroke-width="2" stroke-miterlimit="10"/>
<path opacity="0.1" d="M127.964 -51.4319C215.883 -222.902 439.053 29.1882 307.341 92.7775C244.304 123.245 241.982 264.745 170.928 246.885C99.9844 229.246 88.1513 168.2 69.9593 105.882C47.3989 28.58 102.252 -1.38996 127.964 -51.4872L127.964 -51.4319Z" stroke="#FDFEFF" stroke-width="2" stroke-miterlimit="10"/>
<path opacity="0.2" d="M123.983 -53.0908C214.39 -211.511 435.294 18.0186 310.77 92.6668C252.267 127.724 233.357 267.233 164.901 244.894C96.612 222.831 78.5858 163.832 67.2503 102.786C53.2607 27.3634 96.3908 -4.81826 123.983 -53.1461L123.983 -53.0908Z" stroke="#FDFEFF" stroke-width="2" stroke-miterlimit="10"/>
<path opacity="0.2" d="M120.058 -54.6944C212.512 -200.12 431.59 6.62772 314.254 92.6668C260.342 132.203 224.787 269.777 158.986 243.014C93.3509 216.528 69.0211 159.574 64.6528 99.7998C59.2339 26.3128 90.5308 -8.1913 120.058 -54.6944Z" stroke="#FCFEFF" stroke-width="2" stroke-miterlimit="10"/>
<path opacity="0.3" d="M116.077 -56.3531C210.023 -188.951 427.719 -5.09464 317.682 92.5564C268.249 136.405 216.161 272.265 153.014 241.023C90.0328 210.114 59.3993 155.261 61.9429 96.6482C65.0394 25.0965 84.448 -11.6747 116.077 -56.4084L116.077 -56.3531Z" stroke="#FCFEFF" stroke-width="2" stroke-miterlimit="10"/>
<path opacity="0.3" d="M112.151 -57.9566C207.038 -177.947 423.739 -17.0384 321.166 92.501C276.156 140.552 207.591 274.809 147.043 239.088C86.7157 203.755 49.7233 151.058 59.2893 93.607C70.846 23.9905 78.2555 -15.103 112.151 -58.0119L112.151 -57.9566Z" stroke="#FCFEFF" stroke-width="2" stroke-miterlimit="10"/>
<path opacity="0.3" d="M108.168 -59.6156C203.552 -167.275 419.424 -29.2034 324.538 92.4456C283.841 144.644 198.907 277.297 141.014 237.153C83.3409 197.451 39.9343 146.801 56.5228 90.5656C76.4843 22.9398 71.7842 -18.5867 108.113 -59.6156L108.168 -59.6156Z" stroke="#FBFDFF" stroke-width="2" stroke-miterlimit="10"/>
<path opacity="0.4" d="M104.243 -61.2191C199.627 -156.879 414.891 -41.4788 328.022 92.3904C291.472 148.681 190.338 279.84 135.043 235.217C80.0796 191.092 30.1482 142.488 53.8697 87.4692C82.1808 21.7787 65.3158 -22.2914 104.188 -61.2744L104.243 -61.2191Z" stroke="#FBFDFF" stroke-width="2" stroke-miterlimit="10"/>
<path opacity="0.4" d="M100.262 -62.8781C195.259 -146.927 410.025 -53.8097 331.451 92.2797C298.992 152.662 181.712 282.329 129.071 233.227C76.7617 184.678 20.3608 138.119 51.2154 84.3725C87.8207 20.5621 58.6803 -26.1069 100.262 -62.9334L100.262 -62.8781Z" stroke="#FAFDFF" stroke-width="2" stroke-miterlimit="10"/>
<path opacity="0.5" d="M96.3364 -64.4816C190.67 -137.416 404.938 -66.0851 334.934 92.2797C306.457 156.754 173.141 284.928 123.154 231.347C73.4995 178.374 10.5738 133.862 48.5615 81.3866C93.461 19.4009 51.8792 -30.0881 96.3364 -64.4816Z" stroke="#FAFDFF" stroke-width="2" stroke-miterlimit="10"/>
<path opacity="0.5" d="M92.3548 -66.1404C185.914 -128.458 399.519 -78.3606 338.362 92.1692C313.756 160.735 164.515 287.361 117.127 229.356C70.1262 171.96 0.675699 129.383 45.8517 78.2349C99.0455 18.0186 44.8564 -34.5669 92.3548 -66.1957L92.3548 -66.1404Z" stroke="#F9FDFF" stroke-width="2" stroke-miterlimit="10"/>
<path opacity="0.5" d="M88.4279 -67.744C181.158 -119.998 393.988 -90.4703 341.845 92.1138C321.054 164.882 155.888 289.904 111.209 227.476C66.8629 165.656 -9.05719 125.014 43.1966 75.2489C104.685 16.7468 37.833 -39.2118 88.4279 -67.744Z" stroke="#F9FCFF" stroke-width="2" stroke-miterlimit="10"/>
<path opacity="0.6" d="M84.447 -69.4029C176.568 -112.146 388.293 -102.525 345.218 92.0033C328.187 168.974 147.207 292.392 105.183 225.485C63.4902 159.297 -18.9547 120.48 40.4875 72.1524C110.27 15.3644 30.645 -44.4095 84.447 -69.4029Z" stroke="#F8FCFF" stroke-width="2" stroke-miterlimit="10"/>
<path opacity="0.6" d="M80.466 -71.0064C172.366 -104.792 382.432 -114.413 348.647 92.0033C335.321 173.287 138.581 294.936 99.1557 223.605C60.1174 152.994 -28.797 116.057 37.7782 69.1112C115.91 14.0373 23.5121 -50.0496 80.466 -71.0064Z" stroke="#F8FCFF" stroke-width="2" stroke-miterlimit="10"/>
<path d="M356.388 39.3624C662.833 190.097 115.689 379.371 121.993 179.978C125.2 80.1148 -107.868 114.121 -88.9023 16.415C-69.9361 -81.2913 26.609 -46.179 135.043 -81.8996C270.46 -126.523 277.151 0.434726 356.388 39.3624Z" stroke="#FFFFFA" stroke-width="2" stroke-miterlimit="10"/>
<path d="M359.651 35.1047C646.798 187.442 131.67 377.326 121.329 184.125C116.187 88.1326 -109.472 103.118 -84.6998 9.83492C-59.9829 -83.4478 35.1798 -56.5191 140.13 -84.2219C270.958 -119.224 283.841 -5.09474 359.651 35.1047Z" stroke="#FFFFFA" stroke-width="2" stroke-miterlimit="10"/>
<g opacity="0.9" style="mix-blend-mode:hard-light">
<path d="M362.913 30.847C630.762 184.346 147.76 375.611 120.611 188.272C107.284 96.3164 -111.131 92.1139 -80.4975 3.19956C-50.0299 -85.6595 43.8057 -66.5828 145.161 -86.5996C271.455 -111.538 290.421 -10.7348 362.913 30.7918L362.913 30.847Z" stroke="#FFFFFB" stroke-width="2" stroke-miterlimit="10"/>
</g>
<g opacity="0.8" style="mix-blend-mode:hard-light">
<path d="M366.231 26.534C614.782 180.862 164.183 374.174 119.892 192.419C98.4929 104.555 -112.789 81.0549 -76.2947 -3.38057C-40.0211 -87.8161 52.3768 -76.757 150.249 -88.9219C271.898 -104.073 297.002 -16.3749 366.231 26.5893L366.231 26.534Z" stroke="#FFFFFB" stroke-width="2" stroke-miterlimit="10"/>
</g>
<g opacity="0.8" style="mix-blend-mode:hard-light">
<path d="M369.493 22.2762C598.802 176.826 180.937 373.012 119.173 196.511C89.9216 112.905 -114.449 69.9958 -72.1481 -10.016C-30.1239 -90.0279 60.8364 -86.9867 155.28 -91.2997C272.285 -96.6634 303.471 -22.2362 369.493 22.2762Z" stroke="#FFFFFB" stroke-width="2" stroke-miterlimit="10"/>
</g>
<g opacity="0.8" style="mix-blend-mode:hard-light">
<path d="M372.756 17.9632C582.877 172.292 198.079 371.907 118.51 200.658C81.6279 121.365 -116.052 59.0474 -67.8898 -16.6515C-20.1149 -92.2398 69.4077 -97.2716 160.368 -93.6774C272.672 -89.2538 309.996 -28.1528 372.756 17.9632Z" stroke="#FFFFFC" stroke-width="2" stroke-miterlimit="10"/>
</g>
<g opacity="0.7" style="mix-blend-mode:hard-light">
<path d="M376.018 13.7055C567.173 167.204 215.718 370.801 117.79 204.805C73.4988 129.77 -117.711 47.9885 -63.6881 -23.2315C-10.1072 -94.3962 77.8671 -107.501 165.454 -95.9998C273.003 -81.8442 316.52 -34.1246 376.073 13.7055L376.018 13.7055Z" stroke="#FFFFFC" stroke-width="2" stroke-miterlimit="10"/>
</g>
<g opacity="0.7" style="mix-blend-mode:hard-light">
<path d="M379.337 9.4478C551.636 161.454 233.745 369.474 117.073 208.952C65.5377 138.064 -119.369 36.9847 -59.4843 -29.8669C-0.152754 -96.5527 86.3286 -117.841 170.488 -98.3775C273.336 -74.5453 322.936 -40.373 379.337 9.39252L379.337 9.4478Z" stroke="#FFFFFC" stroke-width="2" stroke-miterlimit="10"/>
</g>
<g opacity="0.6" style="mix-blend-mode:hard-light">
<path d="M382.599 5.13489C536.43 155.095 252.103 367.925 116.354 213.099C57.7409 146.248 -121.028 25.9811 -55.3374 -36.4469C9.74484 -98.7091 94.7333 -128.181 175.519 -100.7C273.613 -67.3016 329.405 -46.6765 382.599 5.13489Z" stroke="#FFFFFD" stroke-width="2" stroke-miterlimit="10"/>
</g>
<g opacity="0.6" style="mix-blend-mode:hard-light">
<path d="M385.861 0.877081C521.61 148.072 270.681 366.045 115.634 217.246C50.0544 154.321 -122.687 14.9773 -51.1355 -43.0824C19.6974 -100.921 103.193 -138.688 180.551 -103.078C273.889 -60.1133 335.985 -53.2014 385.806 0.8218L385.861 0.877081Z" stroke="#FFFFFD" stroke-width="2" stroke-miterlimit="10"/>
</g>
<g opacity="0.5" style="mix-blend-mode:hard-light">
<path d="M389.178 -3.38063C507.344 140.552 289.481 363.834 114.97 221.394C42.4786 162.228 -124.291 3.97368 -46.9334 -49.6625C29.7055 -103.077 111.653 -149.138 185.637 -105.345C274.275 -52.9249 342.786 -59.8368 389.123 -3.38063L389.178 -3.38063Z" stroke="#FFFFFD" stroke-width="2" stroke-miterlimit="10"/>
</g>
<g opacity="0.5" style="mix-blend-mode:hard-light">
<path d="M392.441 -7.69368C493.576 132.424 308.282 361.179 114.252 225.485C34.8484 169.969 -125.894 -7.08537 -42.7305 -56.2979C39.6591 -105.289 120.224 -159.644 190.725 -107.722C274.718 -45.8472 349.809 -66.7487 392.441 -7.69368Z" stroke="#FFFFFD" stroke-width="2" stroke-miterlimit="10"/>
</g>
<g opacity="0.4" style="mix-blend-mode:hard-light">
<path d="M395.704 -11.9513C480.527 123.964 327.083 358.304 113.534 229.688C27.2181 177.655 -127.553 -18.0891 -38.5277 -62.878C49.6125 -107.446 128.795 -170.15 195.757 -110.045C275.161 -38.7694 357.053 -73.7711 395.704 -11.896L395.704 -11.9513Z" stroke="#FFFFFE" stroke-width="2" stroke-miterlimit="10"/>
</g>
<g opacity="0.4" style="mix-blend-mode:hard-light">
<path d="M398.967 -16.2091C468.251 115.282 345.828 355.207 112.815 233.835C19.5323 185.231 -129.211 -29.0928 -34.325 -69.5134C59.6212 -109.658 137.421 -180.767 200.845 -112.422C275.714 -31.747 364.794 -81.0701 398.967 -16.2091Z" stroke="#FFFFFE" stroke-width="2" stroke-miterlimit="10"/>
</g>
<g opacity="0.3" style="mix-blend-mode:hard-light">
<path d="M402.282 -20.522C456.858 106.546 364.515 351.779 112.149 237.927C11.8439 192.696 -130.872 -40.0964 -30.125 -76.0935C69.5719 -111.814 146.1 -191.273 205.874 -114.745C276.265 -24.6691 373.031 -88.4243 402.227 -20.4667L402.282 -20.522Z" stroke="#FFFFFE" stroke-width="2" stroke-miterlimit="10"/>
</g>
<g opacity="0.2" style="mix-blend-mode:hard-light">
<path d="M405.545 -24.7797C446.242 98.1411 383.04 348.24 111.431 242.074C4.04807 200.105 -132.475 -51.1554 -25.9218 -82.7288C79.5258 -114.026 154.838 -201.834 210.962 -117.122C276.929 -17.6466 382.045 -95.8338 405.545 -24.7797Z" stroke="white" stroke-width="2" stroke-miterlimit="10"/>
</g>
<g opacity="0.2" style="mix-blend-mode:hard-light">
<path d="M408.807 -29.0374C436.399 90.3998 401.453 344.646 110.712 246.276C-3.74881 207.515 -134.134 -62.1591 -21.7197 -89.309C89.5339 -116.182 163.574 -212.285 216.049 -119.445C277.592 -10.5136 391.776 -103.077 408.863 -29.0374L408.807 -29.0374Z" stroke="white" stroke-width="2" stroke-miterlimit="10"/>
</g>
<path opacity="0.2" d="M275.769 207.017C246.297 556.426 -191.916 131.65 24.3424 50.9191C132.61 10.4984 -4.07925 -190.665 108.667 -215.548C221.414 -240.43 225.395 -135.702 310.383 -50.7131C416.439 55.398 283.4 116.72 275.824 207.017L275.769 207.017Z" stroke="white" stroke-width="2" stroke-miterlimit="10"/>
<path opacity="0.2" d="M281.74 208.178C242.315 540.059 -182.738 145.474 19.5867 52.0249C120.224 5.57712 6.9794 -197.024 117.514 -214.552C227.994 -232.136 240.158 -132.273 315.028 -47.0637C408.864 58.9368 292.191 120.37 281.74 208.178Z" stroke="white" stroke-width="2.1" stroke-miterlimit="10"/>
<path opacity="0.2" d="M287.713 209.394C238.777 523.581 -173.779 159.574 14.8318 53.2414C107.727 0.876994 18.0389 -203.272 126.362 -213.446C234.629 -223.787 254.591 -128.513 319.673 -43.3037C400.791 62.918 300.984 124.074 287.713 209.45L287.713 209.394Z" stroke="white" stroke-width="2.1" stroke-miterlimit="10"/>
<path opacity="0.2" d="M293.739 210.556C235.79 506.827 -164.989 174.006 10.1306 54.3475C95.1743 -3.76756 29.1521 -209.576 135.318 -212.451C241.319 -215.492 269.298 -125.03 324.427 -39.654C393.049 66.5677 309.995 127.503 293.739 210.611L293.739 210.556Z" stroke="white" stroke-width="2.2" stroke-miterlimit="10"/>
<path opacity="0.2" d="M299.711 211.717C233.357 489.906 -156.363 188.77 5.37536 55.4532C82.5672 -8.19131 40.2112 -215.935 144.166 -211.511C247.899 -207.309 283.841 -121.657 329.072 -36.1153C385.197 70.0511 319.009 130.765 299.711 211.662L299.711 211.717Z" stroke="white" stroke-width="2.2" stroke-miterlimit="10"/>
<path opacity="0.3" d="M305.684 212.933C231.533 472.93 -147.68 204.031 0.621332 56.6696C70.0166 -12.2832 51.3269 -222.183 153.014 -210.405C254.481 -198.959 298.44 -118.173 333.774 -32.3553C377.402 73.6452 328.134 134.193 305.684 212.933Z" stroke="#FFFEFF" stroke-width="2.3" stroke-miterlimit="10"/>
<path opacity="0.3" d="M311.71 214.095C230.481 455.844 -138.834 219.679 -4.08015 57.7757C57.5738 -16.2643 62.4397 -228.487 161.971 -209.41C261.17 -190.665 313.147 -114.8 338.528 -28.7057C369.714 77.1289 337.532 137.4 311.765 214.095L311.71 214.095Z" stroke="#FFFEFF" stroke-width="2.4" stroke-miterlimit="10"/>
<path opacity="0.3" d="M317.682 215.256C230.205 438.814 -129.765 235.715 -8.83528 58.9369C45.1879 -20.0797 73.499 -234.79 170.818 -208.359C267.806 -182.37 327.801 -111.482 343.173 -25.0009C361.918 80.6125 346.933 140.663 317.682 215.311L317.682 215.256Z" stroke="#FFFEFF" stroke-width="2.4" stroke-miterlimit="10"/>
<path opacity="0.3" d="M323.653 216.472C230.647 421.838 -120.31 251.972 -13.5908 60.0981C33.0229 -23.7291 84.5579 -241.094 179.721 -207.309C274.441 -174.021 342.564 -108.165 347.873 -21.2962C354.342 84.0408 356.609 143.87 323.709 216.528L323.653 216.472Z" stroke="#FFFEFF" stroke-width="2.5" stroke-miterlimit="10"/>
<path opacity="0.3" d="M329.681 217.634C231.975 405.084 -110.412 268.45 -18.3456 61.204C20.9692 -27.3234 95.6174 -247.453 188.568 -206.369C281.022 -165.837 357.329 -104.958 352.518 -17.702C346.712 87.3585 366.397 147.022 329.626 217.634L329.681 217.634Z" stroke="#FFFEFF" stroke-width="2.6" stroke-miterlimit="10"/>
<path opacity="0.3" d="M335.653 218.795C234.021 388.661 -100.072 284.983 -23.0456 62.3652C9.24668 -30.9175 106.787 -253.701 197.471 -205.318C287.657 -157.543 372.258 -101.64 357.273 -13.9972C339.358 90.7868 376.627 150.395 335.708 218.85L335.653 218.795Z" stroke="#FFFEFF" stroke-width="2.6" stroke-miterlimit="10"/>
<path opacity="0.3" d="M341.625 220.011C236.785 372.625 -89.3446 301.461 -27.8013 63.5263C-2.47618 -34.4564 117.846 -260.005 206.373 -204.267C294.347 -149.194 387.243 -98.2669 361.973 -10.2925C331.948 94.2703 387.077 153.934 341.68 220.066L341.625 220.011Z" stroke="#FFFEFF" stroke-width="2.7" stroke-miterlimit="10"/>
<path opacity="0.4" d="M347.651 221.172C240.158 357.198 -78.2311 317.828 -32.5575 64.6323C-13.9784 -38.1612 128.904 -266.364 215.219 -203.272C300.927 -140.955 402.172 -94.9492 366.617 -6.64303C324.538 97.754 397.804 157.749 347.651 221.228L347.651 221.172Z" stroke="#FFFEFF" stroke-width="2.8" stroke-miterlimit="10"/>
<path opacity="0.4" d="M353.623 222.334C243.973 342.434 -66.8399 334.03 -37.2571 65.7934C-25.3687 -41.9213 140.019 -272.667 224.122 -202.277C307.563 -132.66 417.213 -91.5209 371.318 -3.04886C317.239 101.238 408.863 161.841 353.623 222.334Z" stroke="#FFFDFF" stroke-width="2.8" stroke-miterlimit="10"/>
<path opacity="0.4" d="M359.651 223.55C247.955 328.5 -55.2273 350.01 -42.0118 66.9546C-36.7588 -45.7366 151.078 -278.916 233.026 -201.226C314.199 -124.366 432.253 -87.982 376.018 0.655946C309.941 104.942 420.199 166.541 359.651 223.495L359.651 223.55Z" stroke="#FFFDFF" stroke-width="2.9" stroke-miterlimit="10"/>
<path opacity="0.4" d="M365.622 224.711C251.935 315.45 -43.5058 365.769 -46.7682 68.1158C-48.04 -49.6626 162.192 -285.219 241.872 -200.176C320.778 -116.072 447.237 -84.4432 380.717 4.36064C302.586 108.647 431.81 171.905 365.622 224.711Z" stroke="#FFFDFF" stroke-width="2.9" stroke-miterlimit="10"/>
<path opacity="0.4" d="M371.595 225.873C255.586 303.341 -31.6161 381.362 -51.467 69.2217C-59.2636 -53.6991 173.307 -291.578 250.776 -199.18C327.47 -107.778 462.224 -80.9042 385.419 8.01015C295.288 112.352 443.534 177.932 371.65 225.873L371.595 225.873Z" stroke="#FFFDFF" stroke-width="3" stroke-miterlimit="10"/>
</svg>
