<svg width="15" height="12" viewBox="0 0 15 12" fill="none" xmlns="http://www.w3.org/2000/svg">
<path d="M14.6351 0.366608C14.7513 0.4827 14.8435 0.620561 14.9064 0.772308C14.9693 0.924056 15.0017 1.08671 15.0017 1.25098C15.0017 1.41525 14.9693 1.57791 14.9064 1.72966C14.8435 1.88141 14.7513 2.01927 14.6351 2.13536L5.88507 10.8854C5.76898 11.0016 5.63112 11.0938 5.47937 11.1567C5.32762 11.2196 5.16496 11.252 5.00069 11.252C4.83643 11.252 4.67377 11.2196 4.52202 11.1567C4.37027 11.0938 4.23241 11.0016 4.11632 10.8854L0.36632 7.13536C0.131769 6.90081 0 6.58269 0 6.25098C0 5.91928 0.131769 5.60116 0.36632 5.36661C0.600871 5.13206 0.91899 5.00029 1.2507 5.00029C1.5824 5.00029 1.90052 5.13206 2.13507 5.36661L5.00069 8.2338L12.8663 0.366608C12.9824 0.250388 13.1203 0.15819 13.272 0.0952848C13.4238 0.0323794 13.5864 0 13.7507 0C13.915 0 14.0776 0.0323794 14.2294 0.0952848C14.3811 0.15819 14.519 0.250388 14.6351 0.366608Z" fill="#222222"/>
</svg>
