<svg width="28" height="28" viewBox="0 0 28 28" fill="none" xmlns="http://www.w3.org/2000/svg">
<path d="M10 0H2.5C1.83696 0 1.20107 0.263392 0.732233 0.732233C0.263392 1.20107 0 1.83696 0 2.5V10C0 10.663 0.263392 11.2989 0.732233 11.7678C1.20107 12.2366 1.83696 12.5 2.5 12.5H10C10.663 12.5 11.2989 12.2366 11.7678 11.7678C12.2366 11.2989 12.5 10.663 12.5 10V2.5C12.5 1.83696 12.2366 1.20107 11.7678 0.732233C11.2989 0.263392 10.663 0 10 0ZM10 10H2.5V2.5H10V10ZM25 0H17.5C16.837 0 16.2011 0.263392 15.7322 0.732233C15.2634 1.20107 15 1.83696 15 2.5V10C15 10.663 15.2634 11.2989 15.7322 11.7678C16.2011 12.2366 16.837 12.5 17.5 12.5H25C25.663 12.5 26.2989 12.2366 26.7678 11.7678C27.2366 11.2989 27.5 10.663 27.5 10V2.5C27.5 1.83696 27.2366 1.20107 26.7678 0.732233C26.2989 0.263392 25.663 0 25 0ZM25 10H17.5V2.5H25V10ZM10 15H2.5C1.83696 15 1.20107 15.2634 0.732233 15.7322C0.263392 16.2011 0 16.837 0 17.5V25C0 25.663 0.263392 26.2989 0.732233 26.7678C1.20107 27.2366 1.83696 27.5 2.5 27.5H10C10.663 27.5 11.2989 27.2366 11.7678 26.7678C12.2366 26.2989 12.5 25.663 12.5 25V17.5C12.5 16.837 12.2366 16.2011 11.7678 15.7322C11.2989 15.2634 10.663 15 10 15ZM10 25H2.5V17.5H10V25ZM25 15H17.5C16.837 15 16.2011 15.2634 15.7322 15.7322C15.2634 16.2011 15 16.837 15 17.5V25C15 25.663 15.2634 26.2989 15.7322 26.7678C16.2011 27.2366 16.837 27.5 17.5 27.5H25C25.663 27.5 26.2989 27.2366 26.7678 26.7678C27.2366 26.2989 27.5 25.663 27.5 25V17.5C27.5 16.837 27.2366 16.2011 26.7678 15.7322C26.2989 15.2634 25.663 15 25 15ZM25 25H17.5V17.5H25V25Z" fill="url(#paint0_linear_1571_2182)"/>
<defs>
<linearGradient id="paint0_linear_1571_2182" x1="-1.61207" y1="-0.0110003" x2="31.1344" y2="15.0548" gradientUnits="userSpaceOnUse">
<stop stop-color="#EF4BCB"/>
<stop offset="1" stop-color="#566CFF"/>
</linearGradient>
</defs>
</svg>
